<svg id="prefix__Layer_2" data-name="Layer 2" xmlns="http://www.w3.org/2000/svg" viewBox="0 0 1429.74 1067.18">
  <defs>
    <style>
      .prefix__cls-1 {
        fill: #4c3048
      }

      .prefix__cls-1,
      .prefix__cls-2,
      .prefix__cls-4,
      .prefix__cls-5,
      .prefix__cls-6,
      .prefix__cls-7,
      .prefix__cls-8,
      .prefix__cls-9 {
        stroke-width: 0
      }

      .prefix__cls-2 {
        fill: #a3316b
      }

      .prefix__cls-4 {
        fill: #db5270
      }

      .prefix__cls-5 {
        fill: #c8aede
      }

      .prefix__cls-6 {
        fill: #feaf87
      }

      .prefix__cls-7 {
        fill: #fff
      }

      .prefix__cls-8 {
        fill: #fccb99
      }

      .prefix__cls-9 {
        fill: #fe8980
      }
    </style>
  </defs>
  <g id="prefix__Layer_1-2" data-name="Layer 1">
    <path
      d="M1428.02 209.09c.52 1.76 1.03 3.51 1.55 5.27-1.69.93-1.33 2.55-1.16 3.95 1.82 15.6 1.05 31.27 1.29 46.92.07 4.47.1 9-.51 13.41-1.3 9.4-.97 18.8-.83 28.22-.28.31-.4.67-.36 1.09-3.61.6-4.62 3.7-5.33 6.41-2.05 7.86-2.74 15.95-3.18 24.04-.21.53-.41 1.07-.61 1.6-1.59-.3-2.17.78-2.54 1.99-1.94 6.34-3.86 12.68-5.74 19.04-.22.73.25 1.37 1.01 1.67-2.78 6.15-5.46 12.34-7.47 18.8-2.2.62-3.6 1.52-1.39 3.77-.15.68-.3 1.37-.44 2.06-3.09 1.11-4.55 3.17-3.76 6.53l.4.26-.41-.24c-1.07-.23-2.14 0-2.51 1.01-2.31 6.34-6.96 11.37-9.67 17.46-.6 1.34-2.46 2.94-.01 4.4l-1.29 2.55c-.25-.02-.63-.16-.72-.05-5.62 6.76-9.77 14.37-12.79 22.6-1.48-.39-2.26.52-3.03 1.56-2.96 4.01-5.94 8-8.48 12.32-8.86 15.05-18.4 29.56-30.34 42.49-5.54 6-11.11 12.3-15.44 19.17-4.8 7.63-10.71 14.32-16.25 21.24-7.78 9.71-17.12 18.15-25.4 27.48-5.44 6.13-10.45 12.83-12.01 21.15-1.38 7.35-1.54 14.86-1.44 22.36.03 2.23.31 4.77-.61 6.65-4.51 9.28-4.21 19.37-5.6 29.19-1.15 8.13-2.26 16.33-5.63 23.95-2.33 5.29-3.67 10.84-4.8 16.47-1.82 9.02-4.05 17.83-7.32 26.56-3.21 8.57-7.14 16.93-9.4 25.92-2.56 10.2-7.9 19.39-13.1 28.42-2.09 3.63-4.75 7.01-5.93 11.03-1.37 4.63-3.82 8.57-6.15 12.71-3.23 5.75-7.6 11.13-7.76 18.22l-.11.18c-4.31 2.05-5.52 5.93-6.02 10.23-1.4 1.61-2.8 3.22-4.2 4.84-4.79 2.62-6.66 5.19-7.61 10.45-.32.32-.49.71-.5 1.17-1.85.02-2.31 1.58-3.13 2.78-2.53 3.69-5.12 7.33-7.63 11.04-7.57 11.16-17.71 20.14-26.02 30.67-8.16 10.34-16.61 20.54-26.6 29.09-9.11 7.79-17.11 16.62-25.76 24.82-3.43 3.25-7.15 6.21-10.52 9.45-3.62 3.48-9.44 4.79-10.88 10.49 0 0-.27.23-.26.24-1.02-.42-2.07-.23-2.81.41-9.43 8.11-21.58 12.5-30.03 21.97-.65.73-1.53 1.3-2.4 1.76-10.49 5.58-20.48 12.1-31.44 16.81-2.28.98-4.47 2.25-6.2 4.13-1.72 1.87-3.9 3.05-6.14 4.2-10.18 5.24-21.18 8.78-30.93 14.92-2.12 1.34-4.47 2.23-7.05 2.3-2.06.05-3.97.73-5.63 1.86-11.31 7.74-24.68 11.01-37.32 14.82-13.19 3.97-25.91 10.7-40.24 10.62-9.86 4.59-20.77 5.02-31.05 7.87-19.77 5.46-40.16 7.03-60.33 9.53-12.01 1.49-24.33 1.95-36.59 1.79-16.22-.21-32.42-.23-48.62-1.26-5.76-.37-11.41-.31-16.74-3.03-1.94-.99-4.35-1.69-6.48-1.55-11.14.73-21.59-3.62-32.55-4.09-3.72-.16-7.55-.23-11.11-1.18-8.82-2.37-18.1-3.07-26.4-7.37-1.26-.65-2.9-.79-4.36-.78-4.79.05-9.29-.86-13.56-3.1-9.25-4.85-19.74-5.81-29.5-9.18-9.64-3.32-19.67-5.75-28.98-9.84-12.19-5.36-23.89-6.41-35.85.15-1.71.94-3.77 1.21-5.64 1.89-7.87 2.88-16.28 2.12-24.31 3.6-14.69 2.71-29.19 6.17-44.23 7.01-15.88.88-31.6 4.01-47.56 4.19-3.34.04-6.54.64-9.43 2.05-4.22 2.06-8.57 2.53-13.11 2.32-23.84-1.08-47.9 2.93-71.54-3.03-11.11 1.07-21.72-2.83-32.67-3.28-14.09-.58-27.48-4.56-41-8-2.9-.74-5.81-1.55-8.77-1.86-6.81-.72-13.15-2.66-19.08-6.13-2.57-1.5-5.21-3.12-8.35-3.05-5.98.14-11.08-2.4-16.35-4.77-11.59-5.2-21.66-13.37-34.04-17.03-2.84-.84-5.25-2.77-7.63-4.66-10.71-8.51-21.53-16.87-32.27-25.33-8.4-6.62-16.56-13.48-21.39-23.39-.76-1.56-1.76-3.04-2.86-4.39-7.86-9.68-13.94-20.29-19.68-31.43-6.1-11.85-9.42-24.64-15.34-36.43-1.12-2.24-1.07-4.83-1.41-7.3-1.16-8.38-.93-16.94-2.99-25.2C.2 835.86-.03 829.9 0 823.9c.07-10.49.14-20.98.02-31.47-.08-6.78.41-13.48 2.01-20.05.83-3.44.9-6.9 1.34-10.35.95-7.39.04-15.26 3.06-22.1 4.07-9.21 6.47-18.84 9.11-28.43 1.26-4.59 4.39-8.46 5.23-12.95 1.03-5.53 3.15-10.76 3.81-16.35.6-5.09 5.02-8.64 5.65-13.73.56-4.58 2.76-8.49 4.76-12.52 8.88-17.87 18.43-35.36 29.13-52.21 6.12-9.64 11.09-20.06 19.31-28.27.7-.7 1.37-1.51 1.76-2.4 4.94-11.18 13.91-19.47 21.2-28.9 5.34-6.91 11.08-13.34 14.23-21.6 1.22-3.2 3.47-5.21 6.46-6.78 4.73-2.48 8.39-6.33 10.74-11.02 1.93-3.85 4.34-7.16 7.33-10.15 11.12-11.12 22.41-22.09 33.3-33.44 4.92-5.14 10.49-10.02 12.85-17.09 3.52-10.55 6.57-21.23 7.14-32.44a60.84 60.84 0 015.14-21.49c2.72-6.13 2.04-12.37 3.37-18.45l4.89-14.58c1.3-.03 1.81-.58 1.22-1.85.13-.38.22-.76.27-1.16 1.33-.03 1.83-.58 1.19-1.86 2.54-7.4 3.29-15.34 6.84-22.43 2-.56 1.52-1.74.75-3 2.46-4.24 4.64-8.61 6.14-13.29 4.52-2.24 6.22-5.94 5.63-10.83.76-1.41 2-2.6 1.93-4.38 2.1-.1 2.1-1.3 1.48-2.83 2.63-3.19 5.17-6.43 5.89-10.68 2.13-.1 2.26-1.26 1.53-2.88 2.53-3.94 6.69-6.83 7.59-11.83 2.69-.64 4.11-1.96 2.63-4.86 5.48-12.31 13.89-22.78 21.33-33.85 2.07-3.07 3.89-6.31 5.82-9.47 2.5-.37 4.15-1.38 3.29-4.31 2.71-1.94 3.59-5.26 5.73-7.63 8.05.15 8.66-8.41 13.74-11.83 2.38-1.61 4.28-4.18 2.87-7.6v-.02c2.38-.61 4.09-1.65 2.97-4.55 3.11-5.26 8.28-8.7 11.91-13.48 2.72-.27 3.73-1.78 3.19-4.41 9.95-9.99 19.9-19.98 29.85-29.98 3.35.81 4.5-1.21 5.09-3.96.81-.68 1.61-1.36 2.42-2.04 5.17-.56 7.82-3.99 9.59-8.42.39-.06.68-.27.87-.62 4.39-.65 8.17-2.16 9.61-6.92.4-.03.7-.22.9-.57 6.18-2.01 11.5-5.07 14.05-11.51.39-.03.69-.2.9-.53 4.86-.43 9.24-1.63 11.15-6.85.4-.03.71-.21.93-.54 3.84.82 5.84-2.4 8.26-4.16 12.96-9.38 26.29-18.09 40.72-25.06 7.37-3.56 15.13-6.54 22.25-10.25 10.78-5.62 22.77-9.09 32.43-16.88.92-.74 2.25-1.18 3.45-1.35 9.23-1.27 17.78-5.09 26.29-8.28 11.91-4.47 24.08-7.8 36.2-11.43 10.18-3.05 20.07-6.15 30.97-7.15 15.98-1.46 31.72-5.77 47.5-9.15C666.33.92 673.43.02 680.7.04c26.98.07 53.95.11 80.93-.02 7.55-.04 14.88.29 21.94 3.46 2.9 1.31 6.26 2.34 9.39 2.28 11.36-.21 22.17 3.11 33.24 4.51 22.41 2.83 43.53 10.4 65.18 16.04 1.68.44 3.31 1.14 4.86 1.93 10.26 5.24 21.52 7.64 32.38 11.07 11.16 3.52 22.22 1.02 32.94-2.95 5.85-2.17 11.67-4.6 18.1-4.11 9.17.7 17.77-2.1 26.42-4.33 10.17-2.61 20.32-5.05 30.94-4.62 3.24.13 6.53.12 9.73-.33 13.6-1.89 27.33-2.02 40.97-2.52 12.64-.46 25.33 1.79 38.07 1.37 7.48-.24 15.17-.92 22.42.42 9.41 1.75 18.76 2.36 28.25 2.44 5.55.04 10.89 1.25 15.82 3.94 4.48 2.44 9.24 3.51 14.37 3.54 4.72.02 9.49-.38 14.16.86 14.44 3.85 28.89 7.61 42.83 13.13 6.02 2.39 12.28 4.17 18.44 6.22 1.25.41 2.45.6 2.93-1.09.29.18.6.23.93.14.76 5.76 5.9 6.02 9.83 7.46 2.77 1.01 5.91 1.24 8.44 2.86 18.37 11.75 39.1 20.21 53.2 37.96.31.39.68.74 1.08 1.03 13.75 9.83 23.64 23.49 34.78 35.81 8.69 9.62 13.16 22.16 18.94 33.72 1.03 2.07.47 5.24 3.77 5.88.63 1.37 1.26 2.73 1.89 4.09-.62 2.44-.22 4.32 2.63 4.88.53 1.74 1.07 3.47 1.61 5.21-1.47 7.34-.22 13.83 5.91 18.78zM379.68 857.28l-.02-.09c.33 1.5 1.46 1.77 2.75 1.79l.03.03c.02 1.93.96 2.94 2.92 2.94l.1.1c-.03 1.48-.27 3.17.87 4.2 3.25 2.95 6.63 5.77 10.06 8.51 1.2.96 2.8.72 4.27.55.48.02.91.18 1.29.47.45.41.9.83 1.35 1.24l.04.06q.96 5.48 6.5 5.63c.39-.06.76.02 1.09.24 4.79 2.99 9.88 1.63 14.81.74 4.78-.86 9.39-2.68 14.39-2.26 1.89.16 3.4-.45 3.71-2.63l3.08-.3c6.28.18 12.67.67 18.77-.73 4.85-1.11 9.51-2.71 14.58-2.33 2.73.2 4.93-.64 5.61-3.68 1.95-.75 3.97-.82 6.02-.7 2.36 2.38 4.95 1.07 7.61.65 8.01-1.25 15.68-4.14 24.03-3.93 4.74.12 9.07-3.26 13.97-3.73.32-.03.52-1.29.77-1.98 1.87-.12 3.73-.25 5.6-.37 2.45.09 4.89.18 7.34.26 2.46.07 4.26-.91 5.16-3.29 1.21-.04 2.42-.09 3.64-.13 2.15.37 4.47 1.18 5.31-1.98 1-.19 2-.38 3.01-.57 2.83 2.6 5.92 1.26 9.06.75 8.66-1.42 16.63-6.12 25.74-5.37.69.06 1.47-.25 2.12-.57 7.58-3.74 15.79-5.21 23.93-7.11 5.49-1.28 11.76-1.52 15.68-6.76l.4-.25c.78-.37 1.57-.73 2.35-1.1l2.03-.42c3.46-.18 7.37.62 10.31-.71 8.49-3.84 17.59-5.86 26.1-9.72 9.54-4.34 19.71-7.33 29.67-10.69 2.86-.96 4.78-2.44 5.61-5.32l1.84-.52c.97-.06 1.89-.23 2.54-1.06l.6-.38c.75-.34 1.51-.69 2.26-1.03 1.03-.25 2.05-.51 3.08-.76 5.65.48 9.84-2.33 13.6-6.09l.38-.22.44.04c3.22.6 5.96.29 6.76-3.63.86-.25 1.71-.49 2.57-.74 8.97-.36 15.79-5.44 22.7-10.32l.12-.08c.76-.12 1.23-.58 1.45-1.3 19.18-9.68 38.26-19.56 56.9-30.25 3.91 1.75 4.69 1.3 7.57-4.36 2.38-.25 5.65 1.16 5.88-3.13l.02.02c2.31.22 4.5.26 4.56-2.97.7-1.01 1.71-1.41 2.89-1.5 1.38.14 2.56-.08 3.03-1.64l-.04.03c7.29-.65 12.81-4.08 16.52-10.41h.07c3.43.1 6.7-.07 7.45-4.45l.08-.03c4.62.52 8.24-.5 9.09-5.84.28-.25.61-.35.98-.28 5.02.2 8.71-1.76 10.65-6.56-.04-.3.07-.52.35-.65 1.36-.05 2.54-.36 2.8-1.98l1.52-1.13c2.94-.03 6.39 1.08 8.44-1.68 5.21-6.99 13.68-9.65 19.74-15.41 4.04-3.83 9.64-5.03 13.7-8.8 11.13-10.33 23.77-18.74 35.9-27.77 2.23-1.66 4.71-2.91 4.79-6.15l.14-.12c.47-.43.95-.86 1.42-1.29l.12-.11q6.26-.35 7.03-5.24c.03-.33.18-.59.46-.77 1.26-.05 2.34-.38 2.69-1.8h-.08c2.11.29 3.17-.63 3.17-2.77l1.66-1.48c4.26.15 6.84-1.72 7.32-6.11h-.01c6.72-.24 10.07-4.49 12.17-10.24.24-.27.54-.4.9-.39 4.09.12 6.09-2.03 6.44-5.96.53-.43 1.07-.86 1.6-1.29 7.78-1.17 11.35-7.83 16.34-12.62.39-.37.1-1.44.13-2.18.85-.65 1.71-1.3 2.56-1.95 2.22.29 3.43-.54 3.23-2.92l.02-.03c5.39-1.85 11.05-7.32 13.65-13.2.6-1.43 1.5-2.57 3.01-3.13 2.26.05 4.65.26 4.21-3.22l.12.08c1-.24 1.43-.91 1.42-1.9.39-.41.78-.81 1.18-1.22 3.45.39 5.12-1.09 4.84-4.61a6.307 6.307 0 012.83-2.81c2.42.28 3.46-.79 3.17-3.2.65-1.24 1.59-2.18 2.85-2.8 2.38.27 3.44-.77 3.14-3.16.43-1.91 1.41-3.37 3.31-4.1 2.24 0 4.64.19 4.08-3.28l.08.05c1.57-.33 1.76-1.5 1.73-2.82 6.64-7.38 13.35-14.69 19.89-22.16 8.5-9.7 16.99-19.42 25.27-29.32 8.1-9.69 15.92-19.61 23.87-29.43 5-.88 5.29-1.24 5.94-7.45l.07-.1c6.15-2.55 7.49-4.78 6.21-10.31 0-1.57-.01-3.14-.02-4.71 2.52-7.24.37-13.86-2.74-20.33-.16-.33-.87-.39-1.33-.58-.2-1.49-.39-2.99-.59-4.48 3.05-7.93 2.19-11.3-3.86-15.03-.82-1.71-1.01-3.52-.96-5.38.08-2.62.24-5.23.23-7.85-.01-2.79-1.39-4.46-4.29-4.68-.19-1.77-.39-3.55-.58-5.32q.72-7.43-3.93-9.65c-1.79-2.47-2.17-5.3-2.14-8.24.52-3.28-.93-6.24-1.68-9.27-.57-2.31-1.73-4.69-4.71-5.06l-.96-3.88c.36-2.3.82-4.65-2.58-5.03-.15-.78-.3-1.56-.46-2.34q.61-7.34-4.82-8.26c-9.93-22.53-21.64-44.07-35.99-64.11-6.2-8.65-12.55-17.19-18.83-25.77-1.44-6.23-3.93-11.6-10.97-13.17-.4-.03-.74-.19-1.01-.49q-.17-5.41-4.83-5.59c-1.87-1.09-3.37-2.54-4.3-4.52.2-3.53-1.87-4.69-4.98-4.77-3.46-3.53-6.82-7.18-10.41-10.58-18.21-17.26-37.69-33.02-57.74-48.07-8.09-6.07-16.28-12.14-25.63-16.3-.38-1.67-1.04-3.02-3.15-2.64-1.37-.72-2.74-1.43-4.11-2.14-.03-.47-.09-.94-.17-1.4-1.24-2.25-3.22-2.99-5.67-2.78-.65-.45-1.3-.89-1.96-1.34-2.82-4.78-7.34-6.62-12.55-7.28-.8-.25-1.6-.5-2.41-.75-1.14-5.23-4.79-6.06-9.34-5.34-7.23-1.91-13.49-6.09-20.42-8.73-10.57-4.03-20.5-9.69-31.63-12.28-3.11-2.67-7.18-3.28-10.79-4.78-7.97-3.31-16.05-6.54-24.73-7.68-9.99-4.49-20.59-6.75-31.3-8.62-6.98-2.96-14.54-3.37-21.86-4.53-50.42-8.03-100.81-8.83-151.37-.19-30.35 5.18-60.12 12.24-89.07 22.49-41.35 14.64-80.67 33.51-116.77 58.73-14.54 10.16-29.25 20.06-42.31 32.13-21.46 19.84-41.99 40.57-60.67 63.09-12.78 15.42-23.68 32.16-34.13 49.14-11.11 18.03-20.72 36.89-29.33 56.34-8.31 18.76-14.88 38.09-20.74 57.61-4.07 13.54-6.48 27.63-9.87 41.42-1.9 7.73-3.11 15.7-3.9 23.63-2.84 28.6-4.23 57.29-3.79 86.05.09 6.01.31 11.97 1.62 17.86-.97 7.04.42 13.93 1.6 20.77 3.49 20.14 6.44 40.41 12.87 59.92-.67 2.84.63 5.36 1.39 7.93 9.85 33.51 23.23 65.51 40.93 95.65 1.05 6.56 3.15 12.53 9.16 16.31l-.02-.06c-.15 6.53 3.71 10.48 8.78 13.65l.05.06c.71 4.76.82 9.95 7.47 10.46 0 1.34.24 2.52 1.79 2.88 3.91 5 7.83 9.99 11.74 14.99.99 7.98 7.3 12.4 12.04 17.84.45.52 1.91.17 2.9.22l.05.06c-.03 1.31.2 2.44 1.75 2.74l.09-.04c-.51 3.55 1.32 4.75 4.56 4.53.43.46.87.92 1.3 1.37-.49 2.64-.07 4.82 2.54 6.31 3.26 1.87 5.93 4.47 7.75 7.77 1.93 3.49 4.83 4.73 8.63 4.34.32.23.5.54.56.93.03.98.49 1.62 1.47 1.83zM72 911.55c.11 1.83 1.15 2.8 2.87 3.15 1.13 6.87 4.61 11.68 11.68 13.35.46.17.7.51.73.99.11 4.41 2.67 6.3 6.79 6.57l.37.39c.18 1.18.63 2.11 2.01 2.17l-.04-.07c3.74 7.31 9.38 12.21 17.57 13.88l.07.04c1.27 5.29 4.95 7.1 10.01 6.92l1.98.96c1.16 5.07 4.79 5.91 9.22 5.39 2.68.41 4.56 2.92 7.42 2.86l.25.11c6.85 4.59 14.6 7.26 22.22 10.09 15.54 5.77 31.27 10.99 47.75 13.48 1.07.14 2.13.27 3.2.41 4.23 2.07 8.82 2.33 13.39 2.71l3.6.3c15.66 3.32 31.55 4.65 47.48 5.5 52.41 2.81 104.17-3.01 155.64-12.16 34.42-6.12 68.33-14.49 102.02-23.76 10.09-2.78 20.18-5.58 30.27-8.38 5.19 2.22 9.67-.64 14.21-2.23 5.95-2.08 11.44-5.23 18.08-5.48 3.76-.14 7.7-1.57 9.55-5.69l.1-.04c8.36 1.07 15.39-3.47 22.85-5.86 3.51-1.12 7.28-1.12 10.63-3.03 7.54-4.3 16.12-6.07 24.24-8.83 6.29-2.14 12.89-3.32 18.45-7.2 1.93-1.34 3.85-2.02 6.17-2.23 2.75-.25 5.53-.87 5.98-4.42l-.03.02c7.98.62 13.94-4.44 20.63-7.42.28-.13.28-.88.41-1.34.7-.21 1.4-.41 2.1-.62 3.54.24 6.86-.88 10.04-2.11 2.37-.91 5.51-1.41 5.87-4.93l.03-.02c2.45-.09 4.98.43 7.26-.91 7-4.1 14.61-6.78 22.1-9.77 3.11-1.24 6.43-2.62 7.93-6.12l-.08.06c.99 0 2.1.3 2.95-.03 8.26-3.28 16.44-6.79 24.14-11.26 1.78-1.03 4.3-1.77 4.58-4.51 21.24-11.57 42.57-23 63.68-34.81 5.93-3.31 11.45-7.33 17.99-9.47 3.47.6 6.37.24 6.83-4.14l.03-.02c2.16.08 4.23.02 4.55-2.84l.09-.06c2.21-.08 4.26-.29 6.38-1.4 9.98-5.19 18.96-11.95 28.55-17.74 1.37-.83 2.33-1.78 2.33-3.46l.06-.04c3.59.08 6.72-1.25 9.76-3.04 9.03-5.32 16.73-12.62 26.1-17.47 2.33-1.2 4.49-3.22 4.66-6.34l.05-.04c7.41-.52 7.72-.74 8.85-6.18.63-.41 1.25-.83 1.88-1.24 2.28-.41 5.75.92 5.24-3.58l.07.38-.02-.38c7.08.12 10.41-5.02 13.93-9.91l.09-.06c6.66-.51 6.87-.65 8.71-6.27l-.04.05c6.64-.64 11.62-3.5 13.74-10.21l.06-.04c2.21-.03 4.36-.14 4.26-3.23v.04c1.57.08 2.74-.38 2.89-2.19.42-.29.84-.57 1.26-.86 2.07.25 3.32-.54 3.5-2.73.63-.49 1.25-.98 1.88-1.46 1.22-.12 2.21-.55 2.49-1.9.7-.7 1.33-1.48 2.11-2.08 37.54-28.66 73.85-58.78 108.6-90.79 30.71-28.29 59.84-58.11 87.68-89.22 14.65-16.38 28.64-33.31 42.65-50.23q6.53-1.68 7.32-9.31l.04.02c5.56-1.22 7.95-4.8 7.7-10.34h-.04c3.24.64 4.18-1.76 5.53-3.92 2.75-4.41 5.22-9.15 8.73-12.88 5.24-5.57 8.58-11.8 9.9-19.23 0-.49.21-.85.63-1.09 2.53-.21 3.99-1.94 5.17-3.88 3.06-5.02 6.23-9.98 9.36-14.92 6.63-10.5 12.63-21.5 16.64-33.4.4-1.17.83-2.38 1.49-3.41 4.16-6.56 5.63-14.15 8.28-21.29.64-1.71.58-3.41.12-5.14l.09-3.66c1.11-.76 1.45-1.96 1.84-3.15 9.34-28.62 16.04-57.62 13.48-88.07-1.86-22.1-7-43.31-17.15-63.09-16.25-31.68-41.72-54.22-72.03-71.89-13.19-7.69-27.45-13.02-41.33-19.19.1-3.37-2.57-3.95-4.91-4.66-7.09-2.14-14.55-3.43-21.25-6.44-6.04-2.71-11.85-2.97-18.05-2.23l-.37.3-.43-.21c-.02-1.58-.31-3.25-2.2-3.29-5.55-.1-10.62-2.5-16.03-3.17-11.53-1.43-22.93-3.67-34.51-4.97-12.85-1.45-25.61-2.71-38.54-2.59-13.96.14-27.93.39-41.88-.05-23.96-.75-47.42 2.65-70.75 7.54-5.18 1.09-5.73 2.06-4.65 8.71 2.89-.27 5.41 1.97 8.54 1.42 13.44 7.66 26.02 16.57 38.24 26.02-.34 4.57 2.79 4.46 5.9 4.39l.09.07c3.24 8.28 10.27 13.22 19.39 13.29 13.2.1 26.41.38 39.59-.08 10.24-.35 20.34.98 30.43 1.91 6.16.57 12.58.06 18.45 1.65 12.94 3.51 26.28 4.77 39.25 7.92 1.85.45 3.41.76 4.48-1.22l2.85.72c2.8 3.95 6.54 4.78 10.97 3.29l.21-.02c.55 3.35 2.89 2.09 4.82 1.86l.31-.28.39.13c-.12 2.29.87 3.62 3.25 3.59 1.65-.02 3.29-.2 4.94-.31.74.09 1.54.01 2.2.29 18.62 7.73 35.64 17.85 49.45 32.85 21.58 23.44 31.97 51.37 33.1 82.91.32 8.93-.19 17.9-.32 26.85-1.44 2.9-1.29 6.01-1.16 9.11-2.44 9.97-4.88 19.94-7.32 29.9l-.31.24.05.39-.28.14.24-.09c-.38 1.3-.75 2.61-1.13 3.91-2.01 3.68-3.22 7.63-3.87 11.76l-.09.62c-.82.57-1.12 1.37-1.06 2.34-.4.19-.51.48-.32.89-1.22 2.31-2.43 4.62-3.65 6.93-6.25 2.23-5.36 7.53-5.36 12.44l-.39.59c-.22-.52-.58-.67-1.09-.43.38.18.75.35 1.12.53-.24.56-.47 1.13-.71 1.69-4.17.55-2.8 3.72-2.92 6.19l-.6 1.41c-2.02 1.02-3.38 2.35-4.42 4.62-2.36 5.16-4.9 10.4-8.36 14.83-2.54 3.26-3.47 6.38-3.31 10.19l-.06.14c-2.54-.25-4.12.9-5.19 3.2-4.08 8.8-11.09 15.81-15.19 24.59-2.47 5.3-7.11 9.45-8.2 15.48-4.76 1.34-6.32 4.62-5.61 9.28l-.09.13c-2.54 0-3.12 1.48-2.75 3.66.11.35 0 .58-.35.7-3.09-.33-4.79 1.22-6.48 3.75-3.12 4.66-6.52 9.19-9.73 13.76-2.58 3.67-7.31 7.01-5.92 12.76v.03c-1.69-.29-3.63-.71-4.56 1.17-1.46 2.98-4.02 4.8-6.36 6.91-3.28 2.96-4.9 6.64-4.29 11.13l-.03.05c-2.06-.19-4.26-.22-5.32 1.84-2.21 4.3-5.8 7.67-9.04 10.85-5.14 5.07-8.45 11.5-13.78 16.37-2.32 2.12-5.26 4.82-4.19 8.92l-.12.13c-2.67-1.21-4.37.43-5.61 2.3-2.22 3.34-4.32 6.6-8.5 7.89-.96.3-1.82 1.68-2.27 2.76-1.39 3.31-3.87 5.55-6.42 7.96-7.01 6.62-13.6 13.68-20.56 20.36-7.81 7.49-14.55 16.06-23.54 22.37-3 2.1-6.96 4.58-5.06 9.65l-.08.08c-2.04-.73-3.49-.37-5.28 1.26-5.8 5.26-11.52 10.6-17.91 15.23-2.67 1.93-6.17 4.57-5.51 9.08l-1.16 1.1c-3.56-1.02-6.26.36-8.53 3.02-1.6 1.88-2.93 3.95-5.04 5.43-5.36 3.76-12.11 5.94-14.87 12.79-.21.51-1.21.78-1.9 1.01-7.74 2.62-12.16 9.74-18.97 13.89-8.42 5.14-15.64 12.34-23.74 18.21-1.75 1.27-4.57 2.62-3.47 5.88l-.12.07c-2.33-.98-4.22-.38-6.12 1.25-8.75 7.51-18.67 13.36-28.21 19.76-4.35 2.92-9.61 5.36-11.15 11.24-.09.38-.32.54-.71.5-6.24-1.72-10.93 2.25-14.61 5.66-10.25 9.51-24.06 13.47-34.19 22.98-7.48-1.06-10.26 6.19-15.64 8.85-6.99 3.45-13.51 7.75-20.8 10.73-3.63 1.48-7.59 3.81-8.17 8.7l-.07-.02c-1.69-.1-3.38-.32-5.07-.3-6.36.08-6.47.22-7.17 7.1-.32.41-.74.6-1.27.57-2.47.09-5.83-1.49-5.94 3.11l-.09-.02c-3.26-.47-6.07.17-9.25 1.57-7.42 3.26-13.86 8.2-21.34 11.38-4.71 2-9.62 3.73-14.11 6.32-2.08 1.2-1.57 2.11 0 3.16-.92.97-2.09 1.37-3.37 1.51-.69-1.14-1.86-2.09-2.98-1.44-4.79 2.76-10.33 3.94-14.91 7.13-1.11.78-1.6 1.76-1.62 3.05-.69.21-1.37.43-2.06.64-1.97-.72-3.82-.21-5.82.19-10.29 2.05-18.43 10.1-29.31 10.43-.42.01-.78.61-1.23.82-7.75 3.68-14.79 9.21-23.99 9.1-.69 0-1.4.44-2.07.76-11.84 5.65-24.27 9.51-36.96 12.74-5.05 1.28-9.88 3.07-15.28 3-3.47-.05-5.68 2.61-6.37 6.16-.92.67-1.95.87-3.06.77-7.65-2.18-9.94-1.63-13.32 3.2-.39.35-.83.46-1.34.33-1.88-.48-3.84-1.58-5.62-1.34-6.44.9-12.77 2.43-18.87 4.75-1.04.4-1 1.56-1.16 2.51-2.41.62-4.81 1.33-7.24 1.86-41.95 9.09-84.12 17.11-126.24 25.35-12.45 2.44-25.13 3.77-37.35 7.41-1.16-.19-2.24-.02-3.21.68-3.56-.24-6.95.44-10.17 1.97l-1.97.33c-13.48 1.73-26.98 3.27-40.42 5.27-8.32 1.23-16.81.39-25.04 2.32-1.21.04-2.41.09-3.62.13-10.26-.44-20.52-.45-30.78.08a10.23 10.23 0 00-5.18-.22c-2.34-1.15-4.88-.78-7.34-.92-21.45-1.19-42.59-4.3-63.36-9.9-14.21-3.83-27.81-9.33-41.42-14.83l-.3-.16-.34-.59-.66.08c-.95-.46-1.91-.91-2.86-1.37-7.03-4.37-14.06-8.75-21.09-13.12-.41-.84-1.07-1.35-1.98-1.56-1.77-2.79-4.57-4.5-6.98-6.61-8.27-7.21-15.89-14.98-22.12-24.09-5.24-7.66-9.21-15.92-12.44-24.55-1.95-5.21-5.1-8.5-10.72-10.28-10.87-3.43-19.75-10.21-27.62-18.41-5.74-5.98-9.43-13.31-14-20.07-.02-1.54-.6-2.85-1.62-3.98.11-1.42-.22-2.66-1.33-3.63-.03-1.86-.31-3.65-1.34-5.25-2.47-18.23-1.44-35.72 8.25-52.21 14.32-24.37 35.05-38.38 63.26-40.72 4.82-.4 6.9-2.45 8.76-6.44 10.96-23.59 24.13-45.92 39.63-66.82 4.59-6.2 8.13-12.45 6.72-20.48.04-5.44.59-10.93.02-16.3-1.38-12.97-2.85-25.92-2.8-38.99.01-3.22-.01-6.43-.01-9.65 0-1.64-.6-2.87-2.28-3.37-.58-1.53-.57-3.06-.04-4.6 1.42-2.35 1.31-4.62-.29-6.92-3.08-.6-4.7 1.37-5.94 3.5-1.79 3.07-4.07 5.76-7.02 7.51-4.5 2.68-5.68 6.52-5.22 11.3-1.6 2.22-3.1 4.52-4.82 6.64-19.37 23.84-37.9 48.29-54.36 74.28-24.89 39.28-44.17 80.97-55.23 126.27-4.46 18.24-7.35 36.73-7.72 55.52-.59 30.04 3.84 59.22 16.01 86.94-.77 3.78-.26 7 3.79 8.66.22 1.13.55 2.2 1.56 2.91.32 3.61 1.27 6.89 4.68 8.87.46.53.93 1.05 1.39 1.58zm964.07-6.14c1.92.05 2.95-.86 3.05-2.79.42-.16.86-.25 1.3-.29 3.76-.11 5.64-2.23 6.18-5.78.56-1.16 1.55-1.65 2.78-1.76 3.05.62 5.16-.73 6.97-3.06 6.66-8.52 14.26-16.13 22.76-22.8 2.3-1.81 3.79-3.82 3.46-6.86l.09-.08c6.45-2.26 10.42-6.73 11.94-13.39l.07-.07c3.5-.55 5.61-2.42 5.79-6.13.06-.47.17-.93.35-1.37 2.76.17 4.56-.95 6.04-3.42 2.04-3.39 4.29-6.67 7.19-9.49 1.77-1.73 2.91-4.03 2.95-6.68.11-1.25.53-2.31 1.76-2.88 5.37-1.35 6.86-5.48 7.4-10.29l.18-.22c.4-.41.8-.83 1.2-1.24.59-1.1 1.17-2.2 1.76-3.3 3.68-.31 5.88-3.14 7.37-5.72 2.45-4.26 5.98-7.81 7.74-12.53 1.14-3.07 5.25-4.91 3.84-9.1-.03-.41.04-.8.19-1.19 4.21-2.27 6.95-5.37 5.98-10.57l.45-2.81q5.56-2.03 5.48-7.81c.64-1.91 1.27-3.82 1.91-5.72 4.95-1.89 4.45-6.71 5.68-10.6v.02c2.28-.83 3.27-2.41 2.8-4.84l.43-4.06c2.2-.19 3.88-1.16 4.19-3.46.57-4.32 2.65-7.91 5.1-11.37 1.11-1.56 1.5-3.14-.24-4.57.41-1.69.61-3.46 1.26-5.05 5.98-14.52 10.57-29.51 14.89-44.58 1.19-4.16 3.25-8.21 2.45-13.17-2.91.52-5 1.62-6.84 3.41-9.95 9.67-20.18 19.03-30.81 27.97-17.68 14.86-34.87 30.32-52.72 44.97-21.47 17.63-43.4 34.68-66.17 50.63-9.33 6.54-18.32 13.53-27.8 19.89-7.61 5.1-15.03 10.48-23.04 14.96q-6.66 0-7.78 5.68c-.42.15-.86.24-1.31.28-6.75.95-11.4 4.99-15.15 10.33l-.05.04c-8.61.18-10.6 1.48-13.43 8.77-.94 1.73-2.65 1.74-4.28 1.91-3.69.35-6.34 2.12-7.73 5.64-.89.15-1.78.31-2.67.46-5.9-1.35-7.88 2.51-9.36 7.04-.87.15-1.73.29-2.6.44-4.58-.83-6.43 2.13-7.86 5.68-.4.16-.82.24-1.25.25-2.19-.16-4.57-.76-6.35.91-2.7 2.52-5.55 4.67-9.02 6.07-1.17.47-1.32 1.97-1.45 3.21-.83.13-1.65.26-2.49.38-2.19-.2-4.21-.46-6.33 1.03-8.63 6.09-18.34 10.3-27.73 15.01-3.02 1.51-4.09 3.21-3.78 6.25-.31.28-.66.37-1.06.28-3.33-1.01-6.59-.08-9.36 1.38-5.41 2.85-10.53 6.27-15.73 9.51-.96.6-.7 1.76-.67 2.74-1.81 2.96-5.69 2.9-7.83 5.37-1.31-.09-2.4.22-2.94 1.57l-2.75.72c-5.11.42-9.5 2.17-12.47 6.63-.43 0-.83.11-1.22.29-2.18-.16-3.7.82-4.66 2.75l-2.68.66c-6.23.99-11.53 4.01-16.59 7.56-2.25-.38-3.08 1.67-4.54 2.64-2.24-.36-4.21-.23-4.75 2.56l-2.68.57c-2.31-.54-3.72.62-4.75 2.5-.9.19-1.79.37-2.69.56-2.55-.34-4.57.46-5.89 2.76l-3.21.78c-.85-.48-1.12-.09-1.1.73l-.26.29c-9.27 1.27-17.12 6.15-25.38 10.01-.31.15-.34.89-.51 1.36-.44.03-.86.14-1.26.33-2.8-.47-5.29.44-7.85 1.46-13.23 5.28-26.49 10.5-40.03 14.97-2.39.18-5.56-1.34-6.11 2.82l-.14.11c-.52.05-.92.29-1.21.73-1.58.28-3.16.55-4.74.83-.55-.47-1.05-1.23-1.66-1.34-2.51-.47-17 4.54-18.73 6.46-.43.48-.39 1.39-.57 2.1 0 0 .14.53.14.52-1.05-.1-2.11-.2-3.16-.29-1.4-2.01-3.85-2.14-5.37-1.37-5.18 2.59-11.34 2.65-16.02 6.4-.9.72-.87 1.71-.93 2.69-.79 1.09-1.9 1.38-3.17 1.29-3.88-3.01-7.82-1.11-11.88-.42-3.79.64-5.75 2.4-5.99 6.16l-.29.23c-1.82.04-3.83-.52-5.96 2.34 7.35 2.04 13.52 5.51 20.82 4.88.62-.05 1.18-.79 1.77-1.21 1.73-.23 3.17.55 4.6 1.35.14 2.15 1.37 3.07 3.43 3.02 2.98-.07 5.96-.16 8.94-.24 1.37.1 2.75.19 4.12.29.16 2.08 1.36 2.98 3.36 2.95 2.42-.04 4.85-.1 7.27-.14 1.97 0 3.96.37 5.87-.39l11.83.69c11.34 3.82 23.08 3.96 34.85 3.76 1.39.07 2.78.14 4.17.2 1.48.19 2.96.54 4.44.53 25.16-.1 50.32.73 75.41-2.82 12.54-1.78 25.11-3.29 37.57-5.63 24.51-4.61 48.45-11.18 71.97-19.46 15.51-5.46 31.07-11.04 45.7-18.3 21.81-10.83 43.21-22.61 63.26-36.67 7.29-5.11 14.14-10.97 22.21-14.94 3.89.17 5.66-2.06 6.34-5.55.59-.54 1.18-1.08 1.76-1.62 2.14-.02 4.17-.18 4.16-3.09l.02-.02zm-856.46-72.43l-.11.11c-2.94.6-6.26 1.22-6.07 5.03.18 3.58.78 7.4 4.95 9.01 1.18 3.72 2.32 7.45 3.54 11.15 1.12 3.37 3.6 4.44 6.94 3.91l1.43 1.46c.95 6.54 6.4 5.15 10.58 6.01l1.69 1.27c.28 2.61 2.31 3.8 4.29 4.71 7.2 3.3 14.63 5.96 22.39 7.64.85.67 1.69 1.34 2.54 2.01.88 3.06 3.67 3.2 5.97 3.38 8.78.67 17.58 1.04 26.37 1.52l2.82.51c.37 1.39 1.32 1.83 2.67 1.6l.07.06c.5 2.43 2.39 3.04 4.43 3.02 4.15-.04 8.34.74 12.43-.55l5.91.3c1.02 1.45 2.58 1.25 4.04 1.28 10.4.23 20.82-.32 31.21.64 3.07.29 6.01-.42 8.11-2.87 2.25-2.64 2.91-5.24-1.09-7-.41-.56-.83-1.12-1.24-1.68-.72-4.31-3.88-5.53-7.63-6-2.04-4.31-5.79-7.08-9.14-10.22-.46-3.16-.65-6.5-4.73-7.33-2-.99-3.82-2.18-4.87-4.26-1.82-3.63-4.71-6.17-8.23-8.08.3-1.32-.03-2.3-1.45-2.69-1.34-5.05-7.44-5.98-9.23-10.64-2.36-3.55-4.51-7.18-6.18-11.14-.88-2.09-1.47-4.74-4.31-5.4-2.11-1.89-4.22-3.78-6.34-5.67.19-3.08.1-5.99-3.9-6.57-1.61-.95-2.69-2.34-3.38-4.06.13-4.15-1.88-7.22-4.93-9.76l-4.08-8.22c.55-2-.24-3.2-2.2-3.7-.85-1.71-1.7-3.43-2.55-5.14.8-2.44.1-4.16-2.41-5.02-1.03-.95-2.06-1.89-3.09-2.84.32-1.64-.24-2.85-1.77-3.58-.51-1.58-1.21-3.04-2.54-4.11.2-1.59-.43-2.72-1.89-3.39-.55-1.21-1.11-2.41-1.66-3.62.53-1.34.36-2.43-1.09-3.07-.05-2.17-.86-4.09-1.88-5.95.65-1.93-.07-3.16-1.93-3.81-1.24-1.82-2.49-3.63-3.73-5.45.18-2.45.63-4.98-1.96-6.61-1.38-2-2.58-4.09-3.1-6.5.93-1.64.56-2.94-1.01-3.93-.43-.88-.85-1.76-1.28-2.65.14-1.89-.86-2.88-2.58-3.31l-1.14-3.6c.85-1.73.93-3.34-.74-4.67-.26-1.44-.51-2.88-.77-4.32.77-3.48 0-6.39-3.08-8.47-.81-2.14-1.87-4.11-3.67-5.6-1.66-4.69-2.33-5-6.54-3.06-3.17.56-3.65 3.18-4.33 5.65-5.07 7.46-4.46 14.66 1.92 22.62.13.39.36.7.71.93.05 2.63 1.46 4.22 3.86 5.06.12.38.34.68.67.9.48 2.98.98 5.94 3.31 8.17.4.77.79 1.54 1.19 2.32-.4 1.93.4 3.11 2.27 3.62.13.38.36.69.69.92 1.45 6.44 2.91 12.88 4.36 19.32.2 2.45.39 4.9.59 7.35-1.02 2.54-.92 5.1-.09 7.67-.85 3.43-.6 6.92-.49 10.4-2.01 2.89-1.74 5.99-.88 9.16-.38 1.2-.75 2.41-1.13 3.61-1.74.39-2.73 1.39-2.66 3.26-2.69 2.58-3.88 5.84-4.25 9.46-1.41.57-1.62 1.66-1.26 2.98-2.89 1.65-6.04 3.04-6.85 6.78-2.65 1.11-4.53 3.05-5.92 5.52-3.95 1.74-3.75 7.39-8.17 8.7-4-.33-5.65 2.07-6.39 5.51zm-8.65-83.46c-1.15-1.44-2.68-1.65-4.36-1.36-7.07-2.2-12.19-6.46-14.94-13.53-1.07-2.76-2.74-5.32-4.34-7.83-3.36-5.26-7.92-8.22-14.45-6.99-6.51 1.23-10.65 5.12-12.48 11.43-.76 2.62-1.28 5.3-1.93 7.96-1.47 6.02-4.33 10.98-9.82 14.38-3.37 2.09-6.53 4.62-9.42 7.34-6.58 6.2-6.39 11.91.31 18.41 3.36 4.99 9.21 5.65 14.1 7.83 5.24 2.34 9.25 5.6 12.14 10.57 2.37 4.08 4.78 8.14 7.61 11.98 5.47 7.4 15.76 5.29 19.52-2.69 1.61-3.41 2.41-7.08 2.92-10.8 1.22-8.89 6-15.06 13.95-19.06 4.01-2.01 8.02-4.12 11.68-6.68 7.81-5.46 6.91-15.12-1.71-19.09-2.66-1.23-5.5-2.46-8.64-1.82l-.15-.04zM1241.51 185.9c-3.61-3.47-7.66-2.26-11.07-.24-11.27 6.68-22.19 6.14-33.25-.39a20.18 20.18 0 00-8.5-2.74c-5.44-.48-9.04 2.92-9 8.37.03 4.65 1.8 8.74 4.03 12.68-.03 1.49-.19 2.98-.06 4.46.79 8.77-.83 16.82-6.51 23.85-1.55 1.92-2.82 4.14-3.83 6.39-1.49 3.35-1.59 6.74.87 9.86 2.56 3.24 5.85 4.73 9.87 3.66 3.35-.89 6.72-1.97 9.85-3.45 10.09-4.79 19.56-5.62 29.66.9 9.01 5.81 16.83 1.14 16.16-9.52-.89-14.11-.66-27.69 5.64-40.85 2.13-4.45 1.53-9.87-3.86-12.98zm28.16 97.13c0-3.49.08-6.98-.02-10.46-.08-2.76-1.26-4.8-4.27-5.27-2.63-.4-4.38.69-5.11 3.22-1.1 3.84-4.23 4.95-7.46 6.57-6.81 3.43-14.33 4.61-21.47 5.98-7.68 1.47-16.16 2.75-23.88-2.22-4.27-2.75-9.22.73-9.15 5.9.06 4.42 2.11 8.19 4.74 11.56 4.56 5.85 5.39 13.71 10.53 19.25.57.61.37 1.92.56 2.89 1.62 8.55 2.76 17.24 8.62 24.35 1.19 1.45 1.5 3.65 2.11 5.54 1.44 4.49 2.37 9.2 4.34 13.44 2.43 5.21 7.68 5.6 11.53 1.34 1.87-2.07 3.37-4.52 3.87-7.18 1.41-7.53 4.56-14.13 9.28-20.12 1.17-1.49 1.52-3.64 2.24-5.48.54-1.38.66-3.34 1.66-4.03 4.37-3.01 4.54-7.34 4.57-11.92.02-3.02.89-5.95 2.14-8.67 3.61-7.86 5.45-16.03 5.17-24.7zm-129.63-94.28c3.3-1.95 5.71-4.05 7.35-6.87 1.35-2.32 1.59-4.81-.88-6.61-3.88-2.83-13.61-1.53-17.89 2.5 3.63 3.57 6.46 7.93 11.42 10.99z"
      fill="#351d59" stroke-width="0" />
    <path class="prefix__cls-9"
      d="M297.05 751.08c-17.7-30.15-31.08-62.15-40.93-95.66-.76-2.57-2.06-5.09-1.39-7.93 2.15.13 3.83 1.19 4.99 2.91 5.51 8.14 13.28 14.14 19.9 21.24 2.03 2.18 4.26 4.13 7.58 3.96 1.82-2.99.13-5.55-.81-7.96-3.52-9.03-6.9-18.08-9.11-27.55-2.77-11.84-6.56-23.41-9.06-35.34-1.4-6.68-1.24-13.5-2.82-20.11.19-7.72-1.79-15.27-1.62-23.01.35-16.37-.61-32.74 1.42-49.11 2.2-17.77 5.24-35.31 10.59-52.41.94-.38 1.35-1.07 1.23-2.08l.69-5.29c2.82-.43 5.28-1.67 7.15-3.75 2.59-2.88 5.85-4.69 9.31-6.11 7.15-2.92 14.57-4.52 22.27-5.65 13.21-1.93 26.47-1.62 39.53-.55 9.1.74 18.42 2.04 27.39 2.1 30.64.22 61.33 2.01 91.98-.94 10.38-1 20.56-3.06 30.89-4.28 7.16-.84 14.02-3.66 21.07-4.54 14.94-1.87 29.16-6.18 43.28-10.91 14.83-4.97 29.44-10.59 43.71-16.99 18.11-8.13 35.86-17.03 52.57-27.79 10.6-6.82 21.03-13.97 31.09-21.55 18.26-13.77 35.96-28.11 51.05-45.63 11.65-13.54 23.7-26.68 33.66-41.56 4.29-6.4 9.14-12.48 12.88-19.19 9.55-17.12 17.9-34.73 24.24-53.45 6.44-19.01 9.76-38.55 12.05-58.17 1.72-14.71 1.09-29.81-2.32-44.57-.93-4.02-2.63-8.13-1.72-12.49 1.06-.05 2.13-.09 3.19-.14 3.6 2.31 7.76.91 11.58 1.77 1 3.44 4.03 2.12 6.26 2.66.45 5.49 1.9 10.84 3.72 15.91 2.32 6.45 4.69 13.14 11.57 16.78 2.63 1.39 4.42 3.97 4.15 7.44-.34 4.38 2.18 7.4 4.96 10.45 6.9 7.6 14.82 14.12 22.59 20.7 8.1 6.86 16.19 14.25 26.57 17.7 6.9 2.3 11.88 6.99 17.27 11.4 6.62 5.42 10.69 12.95 16.6 19.02 12.28 12.62 19.54 28.56 26.43 44.57 4.52 10.48 7.36 21.51 10.92 32.3 5.73 17.4 8.14 35.41 9.29 53.44 1.25 19.6.41 39.26-2.39 58.88-2.36 16.52-5.87 32.7-10.38 48.69-4.92 17.45-9.61 34.94-16.5 51.84-7.34 18-14.68 35.97-22.7 53.68-9.29 20.51-22.21 38.94-33.11 58.52-.48.86-1.01 1.79-1.76 2.38-12.38 9.81-22.89 21.58-33.78 32.89-20.64 21.42-43.47 40.21-67.43 57.67-11.24 8.19-23.09 15.46-35 22.69-13.61 8.26-27.39 15.98-41.84 22.64-30.39 14.01-61.72 24.95-94.85 30.45-3.69.61-7.4.81-11.07 1.47-12.23 2.21-24.58 3.98-36.99 3.92-22.18-.11-44.37 1.24-66.56-1.17-10.37-1.13-20.72-2.41-30.97-4.16-13.69-2.34-27.35-5.01-40.85-8.26-12.26-2.96-24.45-6.43-36.37-10.54-10.52-3.62-20.46-8.91-30.97-12.58-11.3-3.94-22.03-9.23-32.48-14.68-18.4-9.61-36.58-19.91-52.66-33.34-2.34-1.95-4.61-4.25-9.49-4.62 15.19 36.53 33.25 70.37 54.04 104.67-5.08-1.45-7.65-3.36-9.86-5.58-3.2-3.22-6.86-5.74-10.64-8.18-7.12-4.6-13.79-9.72-19.38-16.19-1.66-1.92-2.86-4.98-6.4-4.19l.04-.35c.07-.95-.41-1.4-1.32-1.47l-1.23-1.71c.06-1.4-.31-2.53-1.86-2.9-.34-.15-.7-.19-1.07-.12zM383 633.97c6.59 1.71 16.26-4.86 21.69-10.08 8.29-7.97 10.65-20.42 4.58-29.89-5.49-8.55-13.69-14.63-24.41-15.19-10.22-.53-17.71 5.13-24.49 12.15-3.8 3.94-5.23 8.85-4.56 13.64 1.28 9.12 3.48 18.2 13.06 22.81.86.41 1.55 1.26 2.22 1.99 3.26 3.58 7.27 5.15 11.91 4.56z" />
    <path class="prefix__cls-4"
      d="M302.49 757.62c3.54-.79 4.74 2.26 6.4 4.19 5.59 6.47 12.26 11.59 19.38 16.19 3.77 2.44 7.44 4.96 10.64 8.18 2.21 2.22 4.78 4.13 9.86 5.58-20.79-34.3-38.85-68.14-54.04-104.67 4.88.37 7.15 2.67 9.49 4.62 16.09 13.43 34.26 23.72 52.66 33.34 10.45 5.46 21.18 10.74 32.48 14.68 10.51 3.66 20.45 8.96 30.97 12.58 11.92 4.11 24.11 7.58 36.37 10.54 13.5 3.26 27.16 5.93 40.85 8.26 10.26 1.75 20.6 3.03 30.97 4.16 22.19 2.41 44.38 1.07 66.56 1.17 12.42.06 24.76-1.71 36.99-3.92 3.67-.66 7.38-.86 11.07-1.47 33.14-5.5 64.46-16.44 94.85-30.45 14.45-6.66 28.22-14.38 41.84-22.64 11.91-7.23 23.76-14.5 35-22.69 23.97-17.46 46.8-36.24 67.43-57.67 10.89-11.31 21.4-23.08 33.78-32.89.75-.59 1.28-1.52 1.76-2.38 10.9-19.58 23.82-38 33.11-58.52 8.02-17.71 15.36-35.68 22.7-53.68 6.89-16.9 11.57-34.39 16.5-51.84 4.51-15.98 8.02-32.16 10.38-48.69 2.8-19.62 3.64-39.28 2.39-58.88-1.15-18.03-3.55-36.04-9.29-53.44-3.56-10.8-6.4-21.82-10.92-32.3-6.9-16.01-14.16-31.95-26.43-44.57-5.91-6.07-9.98-13.6-16.6-19.02-5.39-4.41-10.37-9.11-17.27-11.4-10.37-3.45-18.46-10.85-26.57-17.7-7.77-6.57-15.69-13.1-22.59-20.7-2.77-3.05-5.3-6.07-4.96-10.45.27-3.48-1.53-6.06-4.15-7.44-6.88-3.64-9.25-10.33-11.57-16.78-1.82-5.07-3.27-10.42-3.72-15.91 8.94-.4 17.66 2.52 26.63 1.71.57.38 1.14.75 1.72 1.13 4.06-1.03 8.02 2.57 12.1.26 11.13 2.59 21.07 8.25 31.63 12.28 6.93 2.64 13.19 6.82 20.42 8.73 2.24 3.3 5.71 4.46 9.33 5.35.8.25 1.6.5 2.41.75 3.67 3.31 6.93 7.33 12.55 7.28.65.45 1.3.89 1.95 1.34.35 1.52 1.72 1.98 2.84 2.7.48 1.54 1.62 1.76 3.01 1.49 1.37.72 2.74 1.43 4.11 2.15.3 1.78 1.28 2.73 3.15 2.64 9.35 4.16 17.54 10.22 25.63 16.3 20.05 15.04 39.53 30.8 57.74 48.07 3.59 3.4 6.95 7.05 10.41 10.58.51 2.79 2.59 3.94 4.99 4.77.94 1.98 2.43 3.43 4.3 4.52.8 2.56 2.39 4.43 4.82 5.59.27.3.61.47 1.01.49 2.27 5.55 6.21 9.7 10.97 13.17 6.28 8.59 12.64 17.12 18.83 25.77 14.36 20.04 26.07 41.58 35.99 64.11-.2 3.81 2.38 5.99 4.82 8.26l.45 2.34c-.27 2.25.4 4.03 2.58 5.03.32 1.29.64 2.59.95 3.88.81 5.36 2.99 10.12 6.39 14.33-.03 2.94.36 5.78 2.14 8.24.11 3.71.75 7.19 3.93 9.66.19 1.77.39 3.55.58 5.32.54 4.44.88 8.94 4.05 12.53-.05 1.86.13 3.68.95 5.38.28 5.27 1.72 10.24 3.86 15.03.2 1.49.39 2.99.58 4.48.58 3.53.77 7.19 1.85 10.56 1.09 3.41-.73 7.4 2.22 10.35 0 1.57.01 3.14.02 4.71-2.59 3.12-5.03 6.34-6.21 10.31l-.07.1c-3.12 1.58-4.41 4.61-5.94 7.45-7.94 9.82-15.77 19.74-23.87 29.43-8.27 9.9-16.76 19.62-25.27 29.32-6.54 7.46-13.25 14.78-19.89 22.16-1.27.51-1.81 1.48-1.73 2.82 0 0-.08-.05-.07-.05-2.08.2-3.33 1.43-4.08 3.28-1.9.73-2.88 2.19-3.3 4.1-1.67.44-2.71 1.5-3.14 3.16-1.26.62-2.2 1.56-2.85 2.8-1.71.41-2.77 1.48-3.17 3.19a6.307 6.307 0 00-2.83 2.81c-2.52.59-3.87 2.4-4.84 4.61-.39.41-.78.81-1.17 1.22-.76.42-1.33.98-1.42 1.9 0 0-.12-.08-.12-.07-2.12.13-3.4 1.37-4.21 3.22-1.51.56-2.41 1.7-3 3.13-6.13 2.76-10.2 7.66-13.65 13.2l-.02.03c-1.86.11-2.76 1.28-3.24 2.92-.85.65-1.71 1.3-2.56 1.95-6.48 3.83-11.8 8.96-16.47 14.8-.53.43-1.07.86-1.6 1.29-3.13.93-5.02 3.19-6.44 5.95-.36 0-.66.13-.9.39-5.25 2-8.91 5.89-12.17 10.25l.01-.01c-3.25 1.07-5.55 3.27-7.32 6.11l-1.66 1.48c-1.72.17-2.8 1.07-3.17 2.78l.08-.01c-1.26.05-2.24.53-2.7 1.79-.28.18-.43.44-.46.78-2.67 1.31-5.56 2.32-7.03 5.24 0 0-.12.11-.12.1-.77.11-1.23.55-1.42 1.29l-.14.12c-4.82-.4-6.49 4.02-9.57 6.27-21.8 15.92-43.14 32.49-65.72 47.32-2.73 1.79-5.24 3.7-7.28 6.22l-1.52 1.13c-1.19.29-2.3.69-2.8 1.98-.28.13-.39.35-.35.65-4.26 1.04-7.85 3.15-10.65 6.56-.37-.06-.7.03-.98.28-3.66.98-6.73 2.86-9.09 5.84l-.08.03c-3.07.49-5.66 1.8-7.45 4.45H877c-6.31 2.2-11.49 6.19-16.52 10.41l.04-.03c-1.28.04-2.36.46-3.03 1.64-1.17.09-2.19.49-2.89 1.5-2.04.2-3.61 1.11-4.56 2.97l-.02-.02c-2.37.28-4.41 1.17-5.88 3.14-3.12.42-5.22 2.61-7.57 4.36-18.64 10.69-37.72 20.57-56.9 30.25-.77.12-1.31.49-1.45 1.3l-.12.08c-8.68 1-15.6 5.86-22.7 10.32-.86.25-1.71.49-2.57.74-2.87.06-5.15 1.21-6.76 3.63l-.44-.04-.38.22c-4.98 1.04-9.85 2.31-13.6 6.09-1.03.25-2.05.51-3.07.76-1.08-.38-1.95-.28-2.26 1.03l-.6.38c-1.09-.23-1.99 0-2.54 1.07-.61.17-1.23.35-1.84.52-.73.05-1.56-.11-2.18.18-14.41 6.78-29.66 11.39-44.38 17.36-8.26 3.35-17.28 4.46-25.13 8.91-.68.14-1.35.28-2.02.42-1.1-.32-1.95-.09-2.35 1.1l-.4.25c-1.53-.26-2.94.17-4.4.56-15.17 4.01-30.33 8.05-45.53 11.93-8.85 2.26-18.08 2.97-26.6 6.57-1 .19-2 .38-3.01.56-2.29-.74-4.14-.28-5.31 1.98-1.21.04-2.42.09-3.64.13-4.72-1.27-8.81.05-12.5 3.04-1.87.12-3.73.25-5.6.37-9.94.51-19.51 3.28-29.23 5.1-5.74 1.08-11.87.72-17.16 3.88-2.05-.12-4.07-.05-6.02.7-7.2-.18-14.05 2.1-21.08 3.15-6.01.89-12.29.61-17.89 3.6l-3.08.3c-11.07.56-21.95 2.75-32.91 4.15-.33-.22-.7-.3-1.09-.24-1.2-3-4.2-3.91-6.5-5.63l-.04-.06c-.12-.78-.53-1.23-1.36-1.24-.38-.29-.81-.45-1.29-.47-4.35-5.24-9.22-9.89-15.21-13.26l-.1-.1c-.47-1.48-1.46-2.44-2.92-2.94l-.03-.03c-.5-1.24-1.48-1.75-2.76-1.79l.02.09c-.13-.9-.7-1.45-1.47-1.83-.05-.39-.24-.7-.56-.93-5.72-6.74-11.47-13.46-18.93-18.42-.43-.46-.87-.92-1.3-1.37-.81-2.22-2.01-4.06-4.56-4.53l-.09.04c.05-1.31-.5-2.25-1.74-2.74l-.05-.06c-4.28-6.6-9.57-12.37-14.94-18.06-3.91-5-7.83-9.99-11.75-14.99-.19-1.21-.58-2.3-1.79-2.88-1.71-4.04-3.7-7.89-7.47-10.46l-.05-.06c-1.64-5.38-4.68-9.85-8.78-13.65 0 0 .02.06.01.07.34-3.86-3.84-5.99-3.72-9.77z" />
    <path class="prefix__cls-6"
      d="M421.56 932.72c12.21-3.64 24.89-4.98 37.35-7.41 42.12-8.24 84.29-16.27 126.24-25.35 2.43-.53 4.83-1.23 7.24-1.86 8.8-.88 17.36-2.81 25.64-5.93.5.13.95.02 1.34-.33 4.63-.28 9.12-1.16 13.32-3.2 1.11.1 2.15-.09 3.06-.76 2.33.55 4.42-.52 6.53-1.1 33.13-9.12 65.59-20.23 97.2-33.71 5.87-2.51 12.37-3.89 17.3-8.39.69-.21 1.37-.43 2.06-.64 7.02-1.75 13.35-5.07 19.51-8.74 1.28-.15 2.46-.54 3.37-1.51 10.81-3.56 20.57-9.36 30.63-14.51 4.78-2.45 10.06-4.11 14.08-7.94 0 0 .09.02.08.01 2.37-.29 4.35-1.33 5.94-3.11.52.03.94-.16 1.26-.57 4.48-1.54 8.64-3.67 12.24-6.8l.07.02c1.15-.42 2.38-.71 3.45-1.29 22.73-12.38 44.98-25.59 66.71-39.62 7.89-5.09 16.32-9.49 23.25-16.01.38.04.62-.13.71-.5 10.41-5.44 19.52-12.83 29.05-19.56 5.64-3.98 12-7.1 16.43-12.68 0 0 .12-.07.11-.07 2.6-.42 4.39-2.25 6.33-3.74 12.81-9.83 25.64-19.65 38.37-29.58 10.95-8.55 21.98-17.03 31.82-26.91l1.16-1.1c10.2-7.81 20.21-15.83 28.69-25.57l.08-.08c3.92-2.24 7.19-5.29 10.35-8.44 14.09-14.07 28.37-27.96 42.1-42.37 6.82-7.16 14.37-13.79 19.5-22.46 0 0 .12-.13.11-.13 5.95-3.93 9.72-9.96 14.26-15.2 6.34-7.32 13.02-14.41 18.07-22.77l.03-.05c5.61-5.98 11.13-12.04 15.23-19.22 0 0-.01-.03-.02-.03 8.65-9.16 16.15-19.16 22.13-30.27.34-.12.46-.35.35-.7 1.47-.81 2.57-1.89 2.75-3.66l.09-.13c2.66-1.25 2.89-4.56 5.19-6.11 4.91-.81 5.22-1.25 3.36-4.75.51-1.81 1.61-3.2 3.11-4.29.32.38.61.79.98 1.12q4.73 4.16.32 8.23c-2.95 2.74-3.79 7.47-8.38 8.76-.63.18-1.01 1.66-1.31 2.6-3.33 10.43.23 19.59 9.85 25.46 7.19-2.66 13.74-6.63 19.86-11.11 5.19-3.8 9.68-8.54 14.59-12.74 8.6-7.36 17.56-14.33 23.94-23.91 1.52-2.29 3.81-3.12 6.55-2.52-.55 3.01-2.58 5.2-4.21 7.61-2.86 4.22-6.28 8.09-8.4 12.79 0 0 .04.01.04.02-3.57 2.7-5.71 6.46-7.71 10.34 0 0-.04-.02-.04-.01-3.17 2.53-5.66 5.6-7.33 9.31-14.01 16.92-27.99 33.85-42.65 50.23-27.84 31.11-56.97 60.93-87.68 89.22-34.75 32.01-71.06 62.13-108.6 90.79-.78.59-1.41 1.38-2.11 2.08-1.18.18-2.11.68-2.49 1.9-.63.49-1.25.98-1.88 1.46-1.71.21-2.79 1.23-3.5 2.73-.42.29-.84.57-1.26.86-1.25.36-2.38.88-2.9 2.19v-.04c-2.08.2-3.39 1.42-4.26 3.23l-.06.04c-5.39 2.32-9.83 5.91-13.74 10.21l.04-.05c-3.44 1.34-6.34 3.43-8.71 6.27l-.09.06c-5.25 2.44-9.82 5.86-13.93 9.91l.02.38-.07-.38c-2.33.34-4.04 1.59-5.24 3.58-.63.41-1.25.83-1.88 1.24-3.46 1.34-6.47 3.3-8.85 6.18l-.05.04c-9.15 4.39-16.87 11.03-25.4 16.4-5.17 3.25-10.76 5.98-15.11 10.45l-.06.04c-12.93 6.69-25.13 14.58-37.25 22.6l-.09.06c-1.97.22-3.51 1.14-4.55 2.84l-.03.02c-2.78.54-5.1 1.86-6.83 4.14-6.54 2.14-12.06 6.15-17.99 9.47-21.11 11.81-42.43 23.24-63.67 34.81-10.9 4.57-21.6 9.58-31.67 15.81l.08-.06c-12.74 4.91-25.32 10.19-37.3 16.8l-.03.02c-5.69 1.46-11.11 3.54-15.91 7.03-.7.21-1.4.41-2.1.62-7.23 2.41-14.47 4.79-21.05 8.76l.03-.02c-1.82-.15-3.38.7-5 1.3-16.55 6.11-33.13 12.16-49.66 18.32-11.16 4.16-22.72 7.17-33.65 11.95l-.1.04c-14.14 3.87-28.14 8.17-41.84 13.4-10.09 2.79-20.18 5.6-30.27 8.38-33.69 9.27-67.61 17.64-102.02 23.76-51.47 9.15-103.23 14.98-155.64 12.16-15.93-.86-31.83-2.19-47.48-5.5 9.82.45 19.51.68 29.35 2.73 13.97 2.92 28.11-1.13 42-3.41 13.38-2.2 26.39-6.3 39.64-9.29 13.52-3.05 27.41-3.94 40.78-7.69.93-.26 1.98-.1 2.98-.14 5.73-.21 11.25-1.31 16.64-3.39 3.44-1.33 7.07-2.8 10.79-2.5 7.04.56 10.98-3.42 14.32-8.69 3.18-5.02 3.23-8.39-.47-12.84-3.81-4.58-8.01-8.78-14.5-9.2.28-2.98 4.51-2.3 3.81-5.35l.03-.03c1.61-.25 4.65 1.14 3.13-2.72zm7.38.37c-1-.36-2.12-1.08-3.24.04.88 1.31 2.01.83 3.24-.04z" />
    <path class="prefix__cls-2"
      d="M1148.44 774.96c-.16.38-.22.78-.19 1.19-1.75.49-2.97 1.57-3.94 3.11-3.28 5.18-6.96 10.15-9.84 15.53-1.6 2.99-5.19 4.79-5.16 8.7-.59 1.1-1.17 2.2-1.76 3.29-.71.12-1.1.54-1.21 1.24l-.18.22c-3.35 2.79-6.16 5.98-7.4 10.3-1.23.56-1.64 1.63-1.76 2.88-3.42.62-4.66 3.88-6.14 6.12-3.11 4.7-8.73 7.51-10.04 13.48-.17.44-.29.9-.34 1.37-3.31.73-5.45 2.58-5.79 6.12l-.07.07c-4.89 3.65-9.39 7.65-11.94 13.39l-.09.08c-2.22-.03-3.54 1.49-4.93 2.88-8.52 8.52-17.04 17.05-25.57 25.57-1.23 1.23-2.43 2.46-2.69 4.28-1.23.11-2.22.6-2.78 1.76-3.46.43-5.34 2.55-6.18 5.78-.45.04-.88.13-1.3.29-1.93-.06-2.88.94-3.05 2.79l-.02.02c-2.05.14-3.52 1.05-4.16 3.09-.59.54-1.18 1.08-1.76 1.62-3.58.18-5.25 2.53-6.34 5.55-8.07 3.98-14.93 9.83-22.21 14.94-20.05 14.07-41.45 25.84-63.26 36.67-14.63 7.27-30.19 12.84-45.7 18.3-23.53 8.28-47.47 14.86-71.97 19.46-12.46 2.34-25.03 3.85-37.57 5.63-25.09 3.55-50.24 2.72-75.41 2.82-1.48 0-2.96-.35-4.44-.53 1.85-1.77 4.17-1.16 6.33-1.2 3.94-.07 7.89-.05 11.84 0 2.16.03 3.96-.33 4.36-2.88 5.31.12 10.78-1.27 15.66 2.46 1.07.82 3.93.77 4.95-.08 4.13-3.49 8.89-2.21 13.47-2.51 1.81-.12 3.83.49 5.19-.84.08-1.5-.74-1.72-1.41-1.73-11.4-.07-22.79-.08-34.19-.15-2.04-.01-3.28.84-3.64 2.87-5.49.03-10.99-.06-16.48.13-6.1.22-10.42-2.34-13.52-7.71 1.7-2.77 3.5-5.85 6.59-5.75 7.22.23 12.97-2.64 18.46-6.74.95-.71 2.33-.83 3.49-1.28 14.51-5.56 29.66-9.48 43.25-17.4 2.02-1.18 4.57-1.98 7.17-1.87 1.48.06 2.92-.05 4.33-.84 8.23-4.6 16.19-9.92 24.87-13.45 8.82-3.58 15.56-10.14 24.02-14.28 11.58-5.67 20.83-15.13 31.15-22.88 8.61-6.47 14.96-15.39 24.1-21.17 1.03-.65 2.14-1.25 2.63-2.54 3.14-8.22 10.08-12.92 16.7-17.88 1.22-.91 2.66-1.48 2.78-3.18.17-2.29-1.76-2.85-3.32-3.46-1.12-.44-2.44-.38-3.67-.54.12-.94.23-1.87.35-2.81.83-.13 1.65-.26 2.48-.38 5.96-2.82 12.83-4.13 16.82-10.2.43-.01.85-.09 1.25-.25 3.43-.77 6.63-1.86 7.86-5.68.87-.15 1.73-.29 2.6-.44 4.07-1.08 7.59-2.9 9.36-7.04.89-.15 1.78-.31 2.67-.46 3.57-.51 6.64-1.72 7.73-5.64 1.63-.18 3.34-.18 4.28-1.91 4.86-2.33 10.29-3.8 13.43-8.77l.05-.04c6.31-1.6 11.73-4.5 15.15-10.33.45-.03.89-.13 1.31-.28 3.51-.64 6.15-2.47 7.78-5.68 8.01-4.48 15.43-9.86 23.04-14.96 9.48-6.35 18.47-13.35 27.8-19.89 22.76-15.94 44.7-33 66.17-50.63 17.85-14.66 35.04-30.11 52.72-44.97 10.64-8.94 20.86-18.3 30.81-27.97 1.84-1.79 3.93-2.9 6.84-3.41.81 4.96-1.26 9.01-2.45 13.17-4.31 15.07-8.91 30.06-14.89 44.58-.65 1.59-.85 3.36-1.26 5.05-4.86 5.61-6.65 12.65-9.05 19.4-.14 1.35-.29 2.71-.43 4.06-2.43.75-2.89 2.63-2.8 4.83v-.02c-4.28 2.25-4.31 6.79-5.69 10.6-.64 1.91-1.27 3.82-1.91 5.73-3.95 1.11-5.15 4.15-5.48 7.81l-.45 2.81c-4.28 2.23-5.41 6.25-5.98 10.57z" />
    <path class="prefix__cls-8"
      d="M1315.21 439.44c-2.74-.6-5.02.23-6.55 2.52-6.38 9.58-15.34 16.55-23.94 23.91-4.91 4.2-9.4 8.94-14.59 12.74-6.12 4.48-12.66 8.45-19.86 11.11-9.62-5.87-13.18-15.03-9.85-25.46.3-.94.67-2.42 1.31-2.6 4.59-1.3 5.43-6.02 8.38-8.76q4.4-4.08-.32-8.23c-.37-.32-.65-.74-.98-1.12.73-3.54 3.3-5.99 5.25-8.78 6.39-9.16 12.55-18.45 17.28-28.61l.06-.14c6.65-9.18 11.97-19.08 16.09-29.64l.6-1.41c1.94-1.61 2.77-3.74 2.92-6.19.24-.56.47-1.13.7-1.69l-.04-.1s.39-.59.38-.59c1.65-.87 1.54-2.95 2.79-4.09 5.8-3.57 6.01-9.42 6.22-15.27-.19-.4-.08-.7.32-.88.92-.52 1.24-1.32 1.06-2.34l.09-.62c3.62-3.15 6.55-6.53 3.87-11.76.38-1.3.75-2.61 1.13-3.91l.04-.05-.05-.39.31-.24c2.12-.39 3.91-1.51 3.89-3.72-.03-4.52 1.94-8.52 2.76-12.78.84-4.35.49-8.92.66-13.4-.13-3.1-.28-6.21 1.16-9.11 5-3.66 4.3-9.35 3.98-14.16-.79-12.09-2.6-24.11-3.88-36.17-1.03-9.69-3.81-19.13-7.09-28.02-3.39-9.16-11.97-16.01-14.62-26.02-.16-.61-.95-1.4-1.54-1.49-3.15-.48-4.14-3.37-6.09-5.18-8.34-7.76-15.98-16.72-26.49-21.4-8.74-3.9-16.57-9.38-25.48-12.98-6.73-2.72-13.15-5.34-20.51-4.61-2.63.24-4.92-1.8-7.62-1.14l-2.85-.72c-15.71-4.94-31.93-7.48-48.16-9.68-27.95-3.8-56.12-4.04-84.27-3.67-3.69.05-6.68-.69-9.59-3.1-3.03-2.51-5.88-5.37-9.57-7.02l-.09-.07c-1.44-2.18-3.4-3.64-5.9-4.39-12.22-9.45-24.8-18.36-38.24-26.02-1.33-2.77-5.26-2.71-6.43-5.52.68-1.8 2.09-1.56 3.24-1.76 37.75-6.38 75.77-8.85 114.01-7.21 14.42.62 28.91 1.08 43.12 4.09 6.61 3.05 13.55 3.73 20.7 2.93l1.87.38c1.58 2.2 3.73 1.28 5.76 1.05l.33.02c2.32 3.43 5.65 1.38 8.57 1.6.57.14 1.15.27 1.72.41 1.92 4.67 5.97 6.37 10.46 7.1 8.58 1.38 17.01 3.05 24.2 8.42.73.55 1.86.68 2.83.77 9.04.78 16.92 5.3 25.04 8.56 6.76 2.71 13.44 6.11 19.96 9.59 1.54.82 3.28 1.44 4.52 2.59 9.15 8.47 20.51 13.81 30.15 21.73 8.32 6.84 15.82 14.4 22.59 22.42 10.8 12.8 19.47 27.09 26.02 42.81 7.66 18.37 11.74 37.23 12.41 56.96.24 6.94-.32 13.83-1.25 20.79-2.2 16.48-5.31 32.75-9.49 48.82-.76 2.91-2.11 5.62-.12 8.48l-.09 3.66c-.61.46-1.23.92-1.84 1.38-3.41-.47-4.36 2-4.89 4.46-1.68 7.76-4.58 15.06-8.2 22.07-.87 1.68-.96 3.3-.81 5.05-5.26 16.92-15.37 31.25-24.59 46.06-3.23.82-3.75 3.38-3.95 6.15v-.02c-1.64.53-2.93 1.32-2.47 3.39l-.48-.07.47.14c-2.75.08-2.02 2.2-2.22 3.77l-.07.1c-4.9-.3-4.55 2.95-4.2 6.2l.03.05z" />
    <path class="prefix__cls-7"
      d="M277.7 452.73l-.69 5.3c-.76.49-1.15 1.19-1.23 2.08-5.36 17.1-8.39 34.64-10.59 52.41-2.03 16.37-1.07 32.74-1.42 49.11-.17 7.74 1.81 15.29 1.62 23.01-1.32.59-1.28 2.87-3.81 2.54-3.51-2.83-6.81-6.41-9.98-10.25-3.22-3.9-5.82-8.74-11.35-10.13-1.31-5.88-1.53-11.84-1.62-17.86-.44-28.76.95-57.44 3.79-86.05.79-7.93 2-15.9 3.9-23.63 3.39-13.79 5.8-27.88 9.87-41.42 5.87-19.52 12.44-38.85 20.74-57.61 8.61-19.44 18.23-38.3 29.33-56.34 10.45-16.97 21.35-33.72 34.13-49.14 18.68-22.53 39.21-43.26 60.67-63.09 13.06-12.07 27.78-21.97 42.31-32.13 36.1-25.22 75.42-44.09 116.77-58.73 28.95-10.25 58.72-17.31 89.07-22.49 50.57-8.64 100.95-7.84 151.37.19 7.32 1.16 14.88 1.57 21.85 4.53 1.09 2.69 2.2 5.37 3.13 7.64 2.1 1.71 4.94-.03 6.39 2.61-.31 1.03-.64 2.17-.98 3.32-1.06.05-2.13.09-3.19.14-6.06-1.9-12.31-1.8-18.55-1.81-22.2-.02-44.42-.96-66.55 1.58-6.92.79-13.81 1.9-20.74 2.47-10.22.84-20.11 3.36-30.1 5.35-12.45 2.48-24.88 5.13-37.18 8.27-26.02 6.63-51.57 14.76-76.21 25.54-7.93 3.47-16.65 5.19-23.72 10.59-1.71.28-3.61.18-5.11.9-8.9 4.26-17.81 8.51-26.5 13.17-4.99 2.68-9.99 5.4-14.89 8.29-17.38 10.24-34.34 21.09-50.71 32.82-10.05 7.2-19.42 15.35-28.79 23.48-7.67 6.66-15.45 13.35-22.29 20.7-7.26 7.8-14.94 15.28-21.78 23.56-9.19 11.12-18.72 21.88-26.74 33.96-3 4.51-5.54 9.43-9.1 13.49-4.92 5.6-10.02 11.26-12.8 18.04-3.89 9.47-11.04 16.97-14.41 26.81-1.79 5.22-5.15 10.14-6.95 15.59-1.81 2.07-3.13 4.42-4.34 6.89-8.7 17.63-15.62 36-22.48 54.38-3.9 10.45-6.8 21.28-10.15 31.93z" />
    <path class="prefix__cls-8"
      d="M418.41 935.47c.7 3.05-3.52 2.37-3.81 5.35 6.49.42 10.69 4.62 14.5 9.2 3.7 4.45 3.65 7.82.47 12.84-3.34 5.28-7.28 9.25-14.32 8.69-3.72-.29-7.35 1.17-10.79 2.5-5.39 2.08-10.9 3.18-16.64 3.39-1 .04-2.04-.12-2.98.14-13.37 3.74-27.26 4.63-40.78 7.69-13.25 2.99-26.26 7.09-39.64 9.29-13.89 2.28-28.03 6.33-42 3.41-9.84-2.06-19.53-2.29-29.35-2.73l-3.6-.3c-1.7-2.64-4.38-3.61-7.2-4.64-2.79-1.02-4.72-.64-6.19 1.93-1.07-.14-2.13-.27-3.2-.41-9.22-5.55-19.81-6.94-29.91-9.8-1.4-.39-3.07-.01-4.14-1.27-2.3-2.71-5.59-2.89-8.68-3.79-4.48-1.31-8.92-2.63-13.28-4.51-4.34-1.87-8.7-4.94-13.96-4.2l-.25-.11c-2.12-5.48-2.43-5.64-9.85-5.14l-6.8-3.11-1.98-.96c-2.75-3.16-6.14-5.38-10-6.93l-.07-.04c-5.8-4.7-11.02-10.14-17.57-13.88l.04.07c-.21-1.15-.96-1.8-2.01-2.17l-.37-.39c-1.89-2.57-3.98-4.94-6.79-6.57-.03-.49-.27-.82-.73-1-1.39-1.93-2.79-3.86-4.18-5.79-.07-1.21.27-2.69-.29-3.6-4.99-7.99-10.15-15.87-15.24-23.79-.95-1.49-1.9-2.89-3.95-2.8-.32-.18-.45-.45-.42-.82 1.16-5.38.81-10.4-3.43-14.51-1.09-1.06-1.78-2.33-1.99-3.9-1.1-8.51-5.32-16.34-5.54-25.05-.14-5.5-2.84-10.62-3.16-15.84-.52-8.39-1.39-16.78-1.71-25.17-.36-9.57.21-18.89 5.32-27.81 2-3.48 2.63-6.46 7.31-6.14 1.21 2.4 2.36 4.85 2.32 7.67-.02 1.61.36 2.95 2.05 3.55 1.03 1.6 1.32 3.39 1.34 5.25-.32 1.49-.29 2.85 1.34 3.63 1.03 1.13 1.61 2.44 1.62 3.98.04 10.78 7.24 18.68 11.31 27.83 3.57 8.02 9.55 14.54 15.19 21.1 5.52 6.41 11.32 12.88 18.1 17.81 5.74 4.18 11.05 9.27 17.95 11.92 2.46.95 4.55 2.86 6.43 4.95 4 4.44 8.02 8.94 12.53 12.83 3.63 3.14 6.82 7.4 12.36 7.57.91.2 1.57.72 1.98 1.55-.29 2.19 1.43 2.88 2.82 3.84 3.41 2.36 7.04 4.48 10.15 7.19 2.53 2.2 5.08 2.7 8.12 2.09.95.46 1.91.91 2.86 1.37.26.3.6.47 1 .51l.3.16c.14 1.27.4 2.93 1.59 3.18 6.46 1.31 11.52 5.79 17.66 7.65 8.93 2.72 17.94 5.23 27 7.5 5.28 1.32 10.93 1.38 16.03 3.13 8.14 2.79 16.4 3.62 24.86 3.83 6.7.17 13.46-.76 20.08 1.28 1.58.49 3.5.6 4.9-.93 1.75-.38 3.47-.3 5.18.22 10.26 1.46 20.53 1.57 30.79-.08 1.21-.04 2.41-.09 3.61-.13 1.14 1.3 2.69 1.17 4.17 1.08 6.19-.36 12.25-1.83 18.54-1.53 6.19.29 12.38.17 18.53-1.38 6.23-1.56 12.41-3.59 19.03-3.22 1.93.11 3.85-.91 5.21-2.54.66-.11 1.31-.22 1.96-.33 3.41.04 6.81.07 10.22.11z" />
    <path class="prefix__cls-6"
      d="M63.66 784.05c-1.69-.6-2.07-1.94-2.05-3.55.04-2.82-1.11-5.27-2.32-7.67-4.68-.32-5.32 2.66-7.31 6.14-5.11 8.92-5.67 18.24-5.32 27.81.31 8.4 1.19 16.78 1.71 25.17.32 5.22 3.02 10.34 3.16 15.84.22 8.71 4.44 16.53 5.54 25.05.2 1.57.89 2.84 1.99 3.9 4.23 4.12 4.59 9.13 3.43 14.51l-1.91-1.73c-12.17-27.72-16.6-56.9-16.01-86.94.37-18.78 3.26-37.28 7.72-55.52 11.07-45.3 30.34-86.99 55.23-126.27 16.47-25.99 34.99-50.43 54.36-74.28 1.72-2.12 3.22-4.42 4.82-6.64 6.53-4.98 10.17-12.86 17.16-17.54.56.92.93 1.53 1.31 2.15-.53 1.54-.54 3.07.04 4.6-.17 1.23-.46 2.45-.49 3.68-.3 15.25.78 30.47 2.17 45.62.58 6.34.39 13.01 3.38 19 1.4 8.03-2.13 14.29-6.72 20.48-15.5 20.9-28.67 43.22-39.63 66.82-1.85 3.99-3.94 6.04-8.76 6.44-28.21 2.33-48.94 16.35-63.26 40.72-9.69 16.49-10.72 33.98-8.25 52.21z" />
    <path class="prefix__cls-4"
      d="M898.32 868.11c1.23.16 2.55.1 3.67.54 1.56.61 3.49 1.17 3.32 3.46-.13 1.7-1.56 2.27-2.78 3.18-6.62 4.95-13.57 9.66-16.7 17.88-.49 1.28-1.6 1.89-2.63 2.54-9.15 5.78-15.49 14.7-24.1 21.17-10.31 7.75-19.57 17.22-31.15 22.88-8.46 4.14-15.2 10.69-24.02 14.28-8.68 3.53-16.63 8.84-24.87 13.45-1.4.78-2.85.9-4.33.84-2.6-.11-5.15.69-7.17 1.87-13.59 7.92-28.74 11.84-43.25 17.4-1.16.44-2.54.57-3.49 1.28-5.49 4.1-11.24 6.98-18.46 6.74-3.08-.1-4.88 2.98-6.59 5.75 3.1 5.36 7.42 7.92 13.52 7.71 5.49-.19 10.99-.1 16.48-.13l-.02-.03c-.4 2.55-2.2 2.91-4.36 2.88-3.95-.05-7.89-.07-11.84 0-2.16.04-4.49-.57-6.33 1.2-1.39-.07-2.78-.14-4.17-.2-.78-3.27-3.14-4.02-6.13-3.99-9.57.11-19.15.15-28.72.22l-11.83-.69c-1.7-1.62-3.82-1.04-5.82-1.12-.51-.1-1.03-.19-1.54-.29-.61-.31-1.22-.61-1.83-.92l-7.32-.09c-1.37-.1-2.75-.19-4.13-.29-3.89-2-8.01-2.93-12.37-2.78-1.43-.81-2.87-1.58-4.6-1.35-2.27-1.8-5.19-1.6-7.77-2.48-3.02-1.04-6.44-.99-8.87-3.53l.29-.23c6.13-1.39 12.15-3.1 17.88-5.74 1.27.09 2.38-.2 3.17-1.29.94.01 1.88.03 2.81.05 5.3 1.71 5.82 1.54 9.2-3.02l8.6-2.14c2.22.5 4.31.71 4.87-2.3 0 0-.14-.53-.14-.52 7.38-1.26 14.51-3.26 20.96-7.22 1.58-.28 3.16-.55 4.74-.82.77.36 1.04-.11 1.21-.73l.14-.11c2.02-.45 4.05-.89 6.07-1.34 11.39.47 20.53-6.88 31.21-8.98 5.21-1.02 9.14-5.57 14.66-6.25 1.46-.18 1.88-1.4 2.06-2.69.4-.2.82-.31 1.26-.33 10.8 1.16 18.43-4.9 25.88-11.37 0 0 .26-.29.25-.29.43-.15.8-.39 1.1-.73l3.21-.78c2.29-.22 5.12.7 5.89-2.76.9-.19 1.79-.37 2.69-.56 2.19.31 4.3.47 4.75-2.5l2.68-.57c2.26.4 4.4.57 4.75-2.56 1.46-.97 2.29-3.03 4.54-2.65 6.65-.06 12.56-1.76 16.6-7.56.89-.22 1.78-.44 2.68-.66 2.32.38 4.42.39 4.66-2.75.39-.18.79-.28 1.22-.29 4.91-.79 9.37-2.42 12.46-6.63l2.75-.72c1.33.14 2.44-.14 2.94-1.57 2.14-2.47 6.02-2.42 7.83-5.38 9.77-2.3 17.92-7.68 25.76-13.63.4.09.76 0 1.06-.28.95.01 1.91.03 2.87.04 4.59 1.69 5.3 1.27 7.62-4.53.66-1.11 1.73-1.46 2.92-1.59.55-.39 1.1-.79 1.65-1.18 1.34-.82 2.61-1.82 4.3-1.85l1.65-1.23c1.36-.81 2.7-1.67 4.36-1.76 2.24.16 4.41.21 4.6-2.89 2.02-2.32 4.91-3.18 7.53-4.49z" />
    <path class="prefix__cls-7"
      d="M99.52 779.32c-6.69-6.5-6.89-12.21-.31-18.41 2.89-2.72 6.05-5.25 9.42-7.34 5.49-3.4 8.34-8.36 9.82-14.38.65-2.65 1.17-5.34 1.93-7.96 1.83-6.32 5.97-10.21 12.48-11.43 6.53-1.23 11.09 1.74 14.45 6.99 1.61 2.52 3.27 5.07 4.34 7.83 2.76 7.07 7.87 11.32 14.94 13.53 1.05 1.76 2.62 1.85 4.36 1.36l.15.04c-.22 1.83-1.15 3.13-2.65 4.25-3.96 2.97-7.63 6.35-11.72 9.11-15.25 10.28-31.32 18.23-50.52 16.56-2.22-.19-4.46-.12-6.7-.17z" />
    <path class="prefix__cls-5"
      d="M1241.51 185.9c5.39 3.11 5.99 8.53 3.86 12.98-6.3 13.16-6.53 26.74-5.64 40.85.67 10.66-7.15 15.32-16.16 9.52-10.1-6.51-19.57-5.68-29.66-.9-3.13 1.48-6.49 2.56-9.85 3.45-4.02 1.07-7.31-.42-9.87-3.66-2.46-3.11-2.36-6.51-.87-9.86 1-2.26 2.28-4.48 3.83-6.39 5.68-7.03 7.3-15.08 6.51-23.85-.13-1.47.03-2.97.06-4.45 4.96 2.38 8.88 6.22 12.66 9.98 4.42 4.39 9.04 4.46 14.23 2.53 1.84-.68 3.63-1.62 5.27-2.71 7.64-5.09 14-11.72 20.76-17.85 2.64-2.39 5.05-5.52 4.87-9.63z" />
    <path class="prefix__cls-6"
      d="M1368.54 337.04c-1.99-2.87-.64-5.58.12-8.48 4.19-16.07 7.29-32.34 9.49-48.82.93-6.96 1.49-13.85 1.25-20.79-.67-19.72-4.75-38.58-12.41-56.96-6.56-15.72-15.23-30.01-26.02-42.81-6.77-8.02-14.26-15.59-22.59-22.42-9.64-7.92-21-13.26-30.15-21.73-1.24-1.15-2.99-1.77-4.52-2.59-6.52-3.48-13.21-6.88-19.96-9.59-8.12-3.26-16-7.78-25.04-8.56-.97-.08-2.1-.22-2.83-.77-7.19-5.38-15.62-7.04-24.2-8.42-4.5-.72-8.54-2.43-10.46-7.1 2.38.14 4.76.28 7.13.41l.43.21s.37-.3.38-.3c14.53 5.14 29.5 8.78 44.2 13.33 13.88 6.17 28.14 11.5 41.33 19.19 30.31 17.68 55.78 40.21 72.03 71.89 10.15 19.78 15.29 40.99 17.15 63.09 2.56 30.45-4.15 59.46-13.48 88.07-.39 1.19-.73 2.39-1.84 3.15z" />
    <path class="prefix__cls-8"
      d="M240.25 566.8c5.54 1.39 8.13 6.23 11.35 10.13 3.17 3.84 6.47 7.42 9.98 10.25 2.53.33 2.49-1.96 3.81-2.54 1.58 6.61 1.42 13.43 2.82 20.11 2.5 11.93 6.29 23.5 9.06 35.34 2.21 9.46 5.59 18.52 9.11 27.55.94 2.41 2.63 4.97.81 7.96-3.32.18-5.54-1.77-7.58-3.96-6.61-7.1-14.39-13.1-19.9-21.24-1.16-1.72-2.84-2.78-4.99-2.91-6.43-19.51-9.38-39.78-12.87-59.92-1.19-6.84-2.58-13.74-1.6-20.77z" />
    <path class="prefix__cls-5"
      d="M99.52 779.32c2.23.05 4.48-.03 6.7.17 19.2 1.66 35.27-6.28 50.52-16.56 4.09-2.76 7.76-6.14 11.72-9.11 1.5-1.13 2.43-2.42 2.65-4.25 3.14-.64 5.98.6 8.64 1.82 8.62 3.97 9.52 13.64 1.71 19.09-3.66 2.56-7.68 4.66-11.68 6.68-7.95 4-12.74 10.17-13.95 19.06-.51 3.72-1.31 7.39-2.92 10.8-3.77 7.97-14.06 10.08-19.52 2.69-2.84-3.84-5.24-7.9-7.61-11.98-2.89-4.97-6.9-8.23-12.14-10.57-4.89-2.18-10.74-2.84-14.1-7.83z" />
    <path class="prefix__cls-7"
      d="M1241.51 185.9c.17 4.11-2.23 7.24-4.87 9.63-6.76 6.12-13.11 12.76-20.76 17.85-1.64 1.09-3.43 2.03-5.27 2.71-5.19 1.93-9.81 1.86-14.23-2.53-3.78-3.76-7.7-7.6-12.66-9.98-2.24-3.94-4-8.03-4.03-12.68-.04-5.45 3.56-8.85 9-8.37 3.02.26 5.95 1.24 8.5 2.74 11.06 6.53 21.98 7.07 33.25.39 3.41-2.02 7.46-3.23 11.07.24z" />
    <path class="prefix__cls-6"
      d="M161.84 900.92c-5.55-.16-8.73-4.43-12.36-7.57-4.51-3.9-8.53-8.39-12.53-12.83-1.88-2.09-3.97-4-6.43-4.95-6.89-2.66-12.2-7.75-17.95-11.92-6.78-4.93-12.58-11.4-18.1-17.81-5.65-6.56-11.62-13.07-15.19-21.1-4.07-9.14-11.27-17.05-11.31-27.83 4.57 6.76 8.26 14.1 14 20.07 7.87 8.19 16.76 14.97 27.62 18.41 5.61 1.77 8.77 5.06 10.72 10.28 3.23 8.64 7.2 16.9 12.44 24.55 6.23 9.11 13.85 16.88 22.12 24.09 2.42 2.1 5.21 3.82 6.98 6.61z" />
    <path class="prefix__cls-1"
      d="M1208.35 78.41c-2.38-.14-4.76-.28-7.13-.41-.57-.14-1.14-.27-1.71-.41-2.64-1.69-5.62-1.59-8.57-1.6l-.33-.02c-1.7-1.53-3.74-1.23-5.76-1.05-.62-.13-1.24-.26-1.86-.38-6.75-2.01-13.65-3.04-20.7-2.93-14.22-3.01-28.7-3.47-43.12-4.09-38.24-1.64-76.26.83-114.01 7.21-1.15.19-2.56-.04-3.24 1.76 1.17 2.8 5.11 2.75 6.43 5.52-3.13.56-5.64-1.69-8.53-1.42-1.08-6.65-.53-7.63 4.65-8.71 23.33-4.89 46.79-8.29 70.75-7.54 13.95.44 27.92.19 41.88.05 12.93-.13 25.69 1.14 38.54 2.59 11.58 1.3 22.98 3.54 34.51 4.97 5.41.67 10.47 3.07 16.03 3.17 1.9.04 2.18 1.71 2.2 3.29z" />
    <path class="prefix__cls-6"
      d="M1214.63 137.81c7.36-.74 13.78 1.88 20.51 4.61 8.91 3.6 16.74 9.08 25.48 12.98 10.51 4.69 18.15 13.64 26.49 21.4 1.95 1.81 2.94 4.7 6.09 5.18.59.09 1.38.88 1.54 1.49 2.64 10.01 11.23 16.85 14.62 26.02 3.28 8.88 6.07 18.33 7.09 28.02 1.28 12.06 3.09 24.08 3.88 36.17.31 4.81 1.02 10.5-3.98 14.16.13-8.95.64-17.92.32-26.85-1.14-31.54-11.53-59.47-33.1-82.91-13.81-15-30.83-25.13-49.45-32.85-.66-.27-1.47-.2-2.21-.29-2.41-1.9-5.1-3.09-8.19-3.28l-.39-.13-.31.28c-1.21-1.63-2.92-1.98-4.82-1.87 0 0-.21.02-.21.03-1.12-.71-2.24-1.43-3.35-2.16z" />
    <path class="prefix__cls-1"
      d="M756.79 844.67c-4.93 4.5-11.43 5.89-17.3 8.39-31.61 13.48-64.07 24.59-97.2 33.71-2.11.58-4.21 1.65-6.53 1.1.69-3.55 2.9-6.21 6.37-6.17 5.4.07 10.23-1.72 15.28-3 12.69-3.22 25.12-7.08 36.96-12.74.67-.32 1.38-.77 2.07-.76 9.2.11 16.24-5.42 23.99-9.1.44-.21.81-.81 1.23-.82 10.89-.33 19.02-8.37 29.31-10.43 2-.4 3.85-.91 5.82-.19zM1052.56 112.49c3.69 1.65 6.53 4.51 9.57 7.02 2.91 2.41 5.9 3.15 9.59 3.1 28.16-.37 56.32-.13 84.27 3.67 16.23 2.21 32.46 4.74 48.16 9.68-1.07 1.98-2.63 1.67-4.48 1.22-12.97-3.15-26.31-4.41-39.25-7.92-5.87-1.59-12.29-1.08-18.45-1.65-10.09-.93-20.19-2.26-30.43-1.91-13.18.45-26.39.18-39.59.08-9.11-.07-16.15-5.01-19.39-13.29zM939.46 743.95c-6.93 6.52-15.36 10.91-23.25 16.01a1045.99 1045.99 0 01-66.71 39.62c-1.07.58-2.29.86-3.45 1.29.59-4.89 4.55-7.21 8.18-8.7 7.29-2.98 13.81-7.28 20.8-10.73 5.38-2.66 8.16-9.91 15.64-8.85 10.12-9.51 23.93-13.46 34.19-22.98 3.67-3.41 8.37-7.38 14.61-5.66zM1164.16 550.87c-5.13 8.67-12.68 15.3-19.5 22.46-13.73 14.41-28.02 28.3-42.1 42.37-3.16 3.16-6.43 6.21-10.35 8.44-1.9-5.07 2.06-7.55 5.06-9.65 8.99-6.31 15.74-14.88 23.54-22.37 6.96-6.68 13.55-13.74 20.56-20.36 2.55-2.41 5.03-4.65 6.42-7.96.45-1.07 1.3-2.46 2.27-2.76 4.18-1.29 6.28-4.55 8.5-7.89 1.24-1.87 2.93-3.51 5.61-2.3zM1062.28 650.9c-9.83 9.88-20.86 18.36-31.82 26.91-12.73 9.94-25.56 19.75-38.37 29.58-1.95 1.5-3.73 3.33-6.33 3.74-1.1-3.26 1.72-4.61 3.47-5.88 8.1-5.87 15.32-13.08 23.74-18.21 6.81-4.15 11.23-11.27 18.97-13.89.68-.23 1.69-.5 1.9-1.01 2.75-6.85 9.5-9.03 14.87-12.79 2.11-1.48 3.44-3.55 5.04-5.43 2.27-2.66 4.97-4.04 8.53-3.02zM910.02 707.48c2.05-2.52 4.55-4.43 7.28-6.22 22.58-14.83 43.92-31.4 65.72-47.32 3.08-2.25 4.76-6.67 9.57-6.27-.08 3.24-2.56 4.49-4.79 6.15-12.14 9.04-24.77 17.45-35.9 27.77-4.06 3.77-9.66 4.96-13.7 8.8-6.06 5.76-14.53 8.42-19.74 15.41-2.06 2.76-5.51 1.65-8.44 1.68z" />
    <path class="prefix__cls-6"
      d="M301.17 943.29c-1.4 1.52-3.32 1.41-4.9.93-6.61-2.04-13.38-1.11-20.08-1.28-8.46-.22-16.72-1.05-24.86-3.83-5.1-1.75-10.75-1.8-16.03-3.13-9.06-2.27-18.06-4.79-27-7.5-6.14-1.87-11.2-6.34-17.66-7.65-1.19-.24-1.45-1.9-1.59-3.18 13.61 5.5 27.21 11 41.42 14.83 20.77 5.6 41.91 8.71 63.36 9.9 2.45.14 5-.23 7.34.92z" />
    <path class="prefix__cls-1"
      d="M1328.11 419.72c9.22-14.8 19.33-29.14 24.59-46.06.94-.25 1.96-.45 2.36-1.5 3.87-10.02 9.15-19.49 11.54-30.08.61-.46 1.23-.92 1.84-1.38.45 1.72.51 3.42-.13 5.14-2.65 7.13-4.12 14.73-8.28 21.29-.66 1.04-1.1 2.24-1.49 3.41-4.01 11.9-10.01 22.9-16.64 33.4-3.12 4.95-6.3 9.91-9.36 14.92-1.18 1.94-2.64 3.67-5.17 3.88.24-1.01.48-2.02.73-3.03z" />
    <path class="prefix__cls-8"
      d="M830.97 76.59c.34-1.14.68-2.28.98-3.32-1.46-2.64-4.3-.89-6.39-2.61-.93-2.26-2.03-4.95-3.13-7.64 10.72 1.87 21.32 4.13 31.3 8.62q-1.24 7.7-9.02 6.48c-.69-.11-1.44.15-2.16.23-3.82-.86-7.98.54-11.58-1.77z" />
    <path class="prefix__cls-1"
      d="M610.45 943c10.93-4.79 22.5-7.79 33.65-11.95 16.53-6.16 33.11-12.22 49.66-18.32 1.63-.6 3.18-1.45 5-1.3-.45 3.55-3.23 4.17-5.98 4.42-2.32.21-4.24.89-6.17 2.23-5.56 3.87-12.16 5.06-18.45 7.2-8.13 2.76-16.7 4.53-24.24 8.83-3.35 1.91-7.12 1.91-10.63 3.03-7.46 2.39-14.49 6.93-22.85 5.86z" />
    <path class="prefix__cls-6"
      d="M842.56 78.36c.72-.09 1.47-.34 2.16-.23q7.78 1.21 9.02-6.48c8.68 1.14 16.76 4.37 24.73 7.68 3.61 1.5 7.68 2.11 10.79 4.78-4.08 2.32-8.04-1.28-12.1-.26-.3-.78-.85-1.2-1.72-1.13-8.96.81-17.69-2.11-26.63-1.71-2.23-.54-5.26.78-6.26-2.66z" />
    <path class="prefix__cls-1"
      d="M568.38 855.99c8.52-3.6 17.75-4.31 26.6-6.57 15.2-3.89 30.36-7.92 45.53-11.93 1.46-.39 2.88-.82 4.4-.56-3.92 5.24-10.18 5.48-15.68 6.76-8.14 1.9-16.35 3.37-23.93 7.11-.65.32-1.43.62-2.12.57-9.11-.74-17.08 3.95-25.74 5.37-3.14.52-6.23 1.85-9.06-.75z" />
    <path class="prefix__cls-6"
      d="M142.93 968.26c5.27-.75 9.62 2.33 13.96 4.2 4.36 1.88 8.8 3.2 13.28 4.51 3.08.9 6.38 1.09 8.68 3.79 1.07 1.26 2.75.87 4.14 1.27 10.1 2.85 20.69 4.25 29.91 9.8-16.48-2.49-32.21-7.72-47.75-13.48-7.62-2.83-15.37-5.5-22.22-10.09z" />
    <path class="prefix__cls-1"
      d="M649.68 835.16c7.85-4.45 16.87-5.56 25.13-8.91 14.72-5.97 29.97-10.58 44.38-17.36.62-.29 1.45-.13 2.18-.18-.83 2.88-2.75 4.36-5.61 5.32-9.97 3.36-20.13 6.35-29.67 10.69-8.51 3.87-17.61 5.88-26.1 9.72-2.94 1.33-6.84.54-10.31.71zM190.27 597.39c-2.99-5.99-2.8-12.65-3.38-19-1.4-15.16-2.47-30.37-2.17-45.62.02-1.23.32-2.46.49-3.68 1.69.49 2.28 1.72 2.28 3.37 0 3.22.02 6.43.01 9.65-.05 13.07 1.42 26.01 2.8 38.99.57 5.37.02 10.86-.02 16.3zM1196.61 512.76c-5.05 8.36-11.73 15.45-18.07 22.77-4.54 5.24-8.31 11.27-14.26 15.2-1.06-4.1 1.88-6.8 4.2-8.92 5.33-4.87 8.64-11.3 13.78-16.37 3.23-3.18 6.82-6.55 9.04-10.85 1.06-2.06 3.26-2.02 5.32-1.84zM985.65 711.21c-4.42 5.58-10.79 8.7-16.43 12.68-9.53 6.73-18.64 14.13-29.05 19.56 1.54-5.88 6.8-8.32 11.15-11.24 9.54-6.4 19.46-12.25 28.21-19.76 1.9-1.63 3.79-2.23 6.12-1.25zM1271.36 406.16c-4.73 10.16-10.88 19.45-17.28 28.61-1.95 2.8-4.53 5.24-5.25 8.78-1.5 1.1-2.6 2.48-3.11 4.3-.88.63-1.76 1.27-2.63 1.9l-.31-.32c1.09-6.03 5.73-10.17 8.2-15.48 4.1-8.78 11.11-15.79 15.19-24.59 1.07-2.3 2.65-3.45 5.19-3.2zM826.45 811.33c-4.02 3.83-9.29 5.49-14.08 7.94-10.06 5.14-19.82 10.95-30.63 14.51-1.57-1.05-2.08-1.96 0-3.16 4.49-2.59 9.41-4.32 14.11-6.32 7.49-3.18 13.92-8.12 21.34-11.38 3.18-1.4 5.99-2.04 9.25-1.57z" />
    <path class="prefix__cls-6"
      d="M406.22 935.7c-1.36 1.63-3.28 2.65-5.21 2.54-6.62-.37-12.8 1.66-19.03 3.22-6.15 1.54-12.34 1.66-18.53 1.38-6.29-.29-12.35 1.18-18.54 1.53-1.47.09-3.02.22-4.17-1.08 8.24-1.93 16.72-1.09 25.04-2.32 13.44-1.99 26.94-3.53 40.42-5.27z" />
    <path class="prefix__cls-1"
      d="M898.32 868.11c-2.62 1.31-5.51 2.17-7.53 4.49-2.28-.23-3.8.76-4.6 2.89-1.65.09-2.99.95-4.36 1.76-.87 0-1.39.43-1.65 1.24-1.68.03-2.95 1.03-4.3 1.85-.88-.07-1.41.35-1.65 1.18-1.19.13-2.26.48-2.92 1.59-3.42.02-5.5 2.31-7.62 4.53-.96-.01-1.91-.03-2.87-.04-.31-3.04.77-4.74 3.79-6.25 9.39-4.71 19.1-8.92 27.73-15.01 2.12-1.49 4.13-1.23 6.33-1.03-.11.94-.23 1.87-.35 2.81zM1049.39 894.79c.26-1.83 1.46-3.05 2.69-4.28 8.53-8.51 17.05-17.04 25.57-25.57 1.39-1.39 2.71-2.91 4.93-2.88.33 3.04-1.15 5.05-3.46 6.86a132.365 132.365 0 00-22.76 22.8c-1.82 2.33-3.93 3.68-6.97 3.06z" />
    <path class="prefix__cls-2"
      d="M725.85 952.14c-.18 1.29-.6 2.51-2.06 2.69-5.52.67-9.44 5.23-14.66 6.25-10.68 2.1-19.83 9.45-31.21 8.97-.07-.5-.06-.99.05-1.48 13.54-4.47 26.79-9.69 40.03-14.97 2.56-1.02 5.06-1.93 7.85-1.46z" />
    <path class="prefix__cls-1"
      d="M937.18 788.49c4.35-4.47 9.94-7.2 15.11-10.45 8.54-5.36 16.25-12 25.4-16.4-.17 3.13-2.34 5.14-4.66 6.34-9.37 4.85-17.07 12.14-26.1 17.47-3.03 1.79-6.16 3.12-9.76 3.04zM1253.36 91.65c-14.7-4.55-29.68-8.19-44.2-13.33 6.19-.73 12-.47 18.05 2.24 6.7 3 14.15 4.29 21.25 6.44 2.34.71 5 1.29 4.91 4.66zM1233.99 463.2c-5.99 11.11-13.48 21.11-22.13 30.27-1.39-5.75 3.33-9.09 5.92-12.76 3.22-4.57 6.61-9.1 9.73-13.76 1.69-2.53 3.4-4.08 6.48-3.75zM491.94 871.06c5.28-3.16 11.42-2.81 17.16-3.88 9.71-1.82 19.28-4.59 29.23-5.1-.26.69-.46 1.95-.77 1.98-4.9.47-9.22 3.85-13.97 3.73-8.35-.21-16.02 2.68-24.03 3.93-2.66.41-5.25 1.73-7.61-.65zM1092.13 624.23c-8.48 9.73-18.5 17.76-28.69 25.57-.66-4.51 2.84-7.15 5.51-9.08 6.39-4.63 12.11-9.97 17.91-15.23 1.79-1.62 3.24-1.99 5.28-1.26zM568.51 956.44c13.7-5.23 27.7-9.53 41.84-13.4-1.85 4.12-5.78 5.55-9.55 5.69-6.64.25-12.13 3.4-18.08 5.48-4.54 1.59-9.02 4.45-14.21 2.23zM1302.59 459.84c2.13-4.71 5.54-8.57 8.4-12.79 1.63-2.41 3.67-4.6 4.21-7.61l-.03-.05c2.35-1.42 3.37-3.75 4.2-6.2l.07-.1c1.52-.8 2.16-2.12 2.22-3.78l-.47-.14s.48.07.48.06c1.51-.62 2.26-1.82 2.49-3.39 0 0-.01.02-.01.01.86-.68 1.73-1.36 2.59-2.04-1.32 7.43-4.66 13.66-9.9 19.23-3.51 3.73-5.98 8.47-8.73 12.88-1.35 2.16-2.3 4.56-5.53 3.9zM899.87 811.13c12.12-8.02 24.32-15.91 37.25-22.6 0 1.68-.96 2.64-2.33 3.46-9.59 5.79-18.57 12.55-28.55 17.74-2.12 1.1-4.17 1.32-6.38 1.4zM185.16 524.49c-.37-.62-.75-1.23-1.31-2.15-6.99 4.68-10.63 12.56-17.16 17.54-.47-4.78.71-8.62 5.22-11.3 2.95-1.76 5.22-4.45 7.02-7.51 1.24-2.12 2.86-4.1 5.94-3.5 1.6 2.3 1.71 4.57.29 6.92zM1129.3 803.5c-.03-3.9 3.56-5.71 5.16-8.7 2.89-5.39 6.56-10.35 9.84-15.53.97-1.54 2.19-2.63 3.94-3.11 1.41 4.19-2.7 6.03-3.84 9.1-1.75 4.72-5.29 8.27-7.74 12.53-1.48 2.58-3.69 5.41-7.37 5.72zM446.96 878.51c5.6-2.99 11.88-2.71 17.89-3.6 7.03-1.04 13.87-3.32 21.08-3.15-.68 3.04-2.88 3.89-5.61 3.68-5.07-.38-9.74 1.23-14.58 2.33-6.1 1.39-12.49.91-18.77.73zM737.82 895.01c11.98-6.61 24.55-11.88 37.3-16.8-1.51 3.5-4.83 4.87-7.93 6.12-7.49 2.99-15.1 5.67-22.1 9.77-2.28 1.33-4.81.82-7.26.91z" />
    <path class="prefix__cls-2"
      d="M664.21 1009.02c9.57-.07 19.15-.11 28.72-.22 2.99-.04 5.35.72 6.13 3.99-11.77.2-23.51.05-34.85-3.77z" />
    <path class="prefix__cls-1"
      d="M859.76 887.87c-7.84 5.95-15.99 11.33-25.76 13.63-.03-.98-.29-2.14.67-2.74 5.2-3.25 10.32-6.66 15.73-9.51 2.77-1.46 6.03-2.39 9.36-1.38z" />
    <path class="prefix__cls-2"
      d="M752.99 940.44c-7.45 6.46-15.08 12.52-25.88 11.37.16-.47.19-1.21.5-1.36 8.25-3.85 16.1-8.74 25.38-10.01z" />
    <path class="prefix__cls-1"
      d="M775.04 878.28c10.08-6.23 20.77-11.24 31.67-15.81-.29 2.74-2.81 3.48-4.58 4.52-7.69 4.47-15.87 7.98-24.14 11.26-.85.34-1.96.04-2.95.03zM1287.51 376.38c-4.11 10.56-9.44 20.46-16.09 29.64-.16-3.81.76-6.94 3.31-10.19 3.46-4.43 6-9.67 8.36-14.83 1.04-2.27 2.4-3.6 4.42-4.62zM640.08 983.11c-2.87.71-5.73 1.43-8.6 2.14-3.38.04-6.42 1.13-9.2 3.02-.94-.02-1.88-.03-2.81-.05.06-.98.02-1.96.93-2.69 4.68-3.75 10.84-3.81 16.02-6.4 1.52-.76 3.98-.63 5.37 1.37-.57.87-1.14 1.73-1.72 2.6zM618.04 892.17c-8.28 3.12-16.84 5.05-25.64 5.93.16-.95.12-2.12 1.16-2.51 6.1-2.32 12.43-3.85 18.87-4.75 1.78-.25 3.74.85 5.62 1.34zM358.73 836.1c7.46 4.96 13.2 11.68 18.93 18.42-3.8.39-6.7-.85-8.63-4.34-1.82-3.3-4.49-5.9-7.75-7.77-2.61-1.5-3.03-3.67-2.54-6.31zM1211.87 493.5c-4.1 7.18-9.62 13.24-15.23 19.22-.61-4.5 1.01-8.18 4.3-11.14 2.34-2.11 4.9-3.93 6.36-6.91.93-1.88 2.87-1.46 4.57-1.17zM410.97 882.95c10.97-1.41 21.84-3.59 32.91-4.15-.32 2.18-1.83 2.78-3.71 2.63-5-.41-9.61 1.4-14.39 2.26-4.93.89-10.02 2.25-14.81-.74z" />
    <path class="prefix__cls-6"
      d="M1315.18 296.94c-.17 4.48.17 9.05-.66 13.4-.82 4.26-2.79 8.26-2.76 12.78.01 2.22-1.77 3.34-3.89 3.72l7.32-29.91z" />
    <path class="prefix__cls-1"
      d="M1100.82 841.02c1.31-5.96 6.94-8.77 10.04-13.48 1.48-2.24 2.72-5.5 6.14-6.12-.04 2.64-1.18 4.95-2.95 6.68-2.89 2.82-5.15 6.1-7.19 9.49-1.49 2.47-3.28 3.59-6.04 3.42z" />
    <path class="prefix__cls-6"
      d="M184.9 915.6c-3.04.61-5.59.11-8.12-2.09-3.11-2.71-6.74-4.83-10.15-7.19-1.39-.96-3.11-1.66-2.82-3.84 7.03 4.37 14.06 8.75 21.09 13.12z" />
    <path class="prefix__cls-1"
      d="M665.77 973.06c-6.45 3.96-13.58 5.96-20.96 7.22.18-.71.13-1.62.57-2.1 1.73-1.93 16.23-6.93 18.73-6.46.62.11 1.11.88 1.66 1.34zM616.3 989.52c-5.72 2.65-11.75 4.35-17.88 5.74.25-3.77 2.21-5.53 5.99-6.16 4.06-.68 8.01-2.58 11.88.42zM598.14 995.48c2.43 2.53 5.85 2.49 8.87 3.53 2.57.88 5.5.68 7.77 2.48-.59.42-1.15 1.15-1.77 1.21-7.3.63-13.47-2.84-20.82-4.88 2.13-2.86 4.14-2.3 5.96-2.34zM778.37 835.29c-6.17 3.67-12.49 6.99-19.51 8.74.02-1.29.51-2.27 1.62-3.05 4.58-3.19 10.12-4.36 14.91-7.13 1.13-.65 2.3.3 2.98 1.44zM755.43 794.32c7.1-4.46 14.02-9.32 22.7-10.32-6.91 4.89-13.73 9.96-22.7 10.32zM96.41 938.1c6.56 3.74 11.77 9.18 17.57 13.88-8.2-1.66-13.84-6.57-17.57-13.88zM336.04 809.37c5.37 5.7 10.66 11.46 14.94 18.06-.99-.05-2.44.3-2.9-.22-4.74-5.44-11.06-9.86-12.04-17.84zM1037.62 610.1c4.67-5.85 9.99-10.97 16.47-14.8-.03.75.25 1.81-.13 2.18-4.99 4.79-8.56 11.45-16.34 12.62zM1171.17 728.57c2.4-6.76 4.19-13.79 9.05-19.4 1.74 1.44 1.35 3.02.24 4.57-2.45 3.45-4.53 7.04-5.1 11.37-.31 2.3-1.99 3.28-4.19 3.46zM1190.73 437.59c-2.95-2.95-1.13-6.94-2.22-10.35-1.08-3.37-1.27-7.03-1.85-10.56.46.19 1.18.25 1.34.58 3.11 6.47 5.26 13.1 2.74 20.33zM917.97 854.72c-3.99 6.07-10.86 7.37-16.82 10.2.13-1.24.28-2.74 1.45-3.22 3.46-1.39 6.32-3.54 9.02-6.07 1.79-1.67 4.16-1.07 6.35-.91zM982.33 814.16c-3.42 5.84-8.85 8.73-15.15 10.33 3.76-5.34 8.4-9.38 15.15-10.33zM385.47 862.06c5.98 3.37 10.85 8.02 15.21 13.26-1.47.17-3.07.41-4.27-.55-3.43-2.74-6.81-5.56-10.06-8.51-1.14-1.04-.9-2.73-.87-4.2zM1186.07 412.19c-2.14-4.79-3.58-9.76-3.86-15.03 6.05 3.73 6.91 7.1 3.86 15.03zM698.74 911.44c6.58-3.98 13.82-6.35 21.05-8.76-.13.46-.13 1.22-.41 1.34-6.69 2.98-12.65 8.04-20.63 7.42zM1059.91 590.4c3.44-5.54 7.51-10.44 13.65-13.2-2.6 5.88-8.25 11.35-13.65 13.2zM967.13 824.54c-3.14 4.97-8.57 6.44-13.43 8.77 2.83-7.29 4.82-8.59 13.43-8.77zM1016.45 734.4c3.91-4.3 8.35-7.9 13.74-10.21-2.12 6.71-7.11 9.57-13.74 10.21z" />
    <path class="prefix__cls-6"
      d="M216.1 992.24c1.47-2.57 3.4-2.95 6.19-1.93 2.82 1.03 5.5 2 7.2 4.64-4.57-.38-9.16-.64-13.39-2.71z" />
    <path class="prefix__cls-1"
      d="M1082.67 861.98c2.55-5.74 7.05-9.74 11.94-13.39-1.52 6.66-5.49 11.13-11.94 13.39zM845.97 800.86c-3.59 3.14-7.75 5.27-12.24 6.8.7-6.88.81-7.02 7.17-7.1 1.69-.02 3.38.19 5.07.3zM1016.51 628c3.26-4.36 6.92-8.25 12.17-10.25-2.1 5.74-5.45 10-12.17 10.25zM1100.53 232.3c-4.75-3.47-8.7-7.62-10.97-13.17 7.04 1.57 9.52 6.94 10.97 13.17zM860.51 738.82c5.03-4.23 10.21-8.22 16.52-10.41-3.71 6.33-9.23 9.77-16.52 10.41zM82.37 922.26c1.39 1.93 2.79 3.86 4.18 5.79-7.07-1.67-10.55-6.48-11.68-13.35l.44-.41c2.67 2.38 4.03 5.92 7.06 7.97z" />
    <path class="prefix__cls-2" d="M799.46 919.49c-4.04 5.8-9.95 7.49-16.6 7.56 5.06-3.55 10.37-6.57 16.6-7.56z" />
    <path class="prefix__cls-1"
      d="M993.76 750.6c4.11-4.05 8.67-7.46 13.93-9.91-3.51 4.89-6.85 10.03-13.93 9.91zM306.2 767.33c4.1 3.8 7.14 8.28 8.78 13.65-5.07-3.18-8.93-7.12-8.78-13.65z" />
    <path class="prefix__cls-1"
      d="M302.49 757.62c-.11 3.77 4.07 5.91 3.72 9.77-6.01-3.78-8.11-9.75-9.16-16.31.37-.07.73-.03 1.07.12.13 1.28.51 2.4 1.86 2.9.41.57.82 1.14 1.23 1.7.13.77.48 1.33 1.31 1.47l-.04.35z" />
    <path class="prefix__cls-6" d="M337.14 943.42c-10.26 1.65-20.52 1.54-30.79.08 10.26-.53 20.52-.52 30.79-.08z" />
    <path class="prefix__cls-1"
      d="M721.89 902.06c4.79-3.49 10.21-5.57 15.91-7.03-.35 3.52-3.5 4.02-5.87 4.93-3.18 1.22-6.5 2.35-10.04 2.11zM632.7 888.63c-4.21 2.04-8.69 2.92-13.32 3.2 3.38-4.83 5.67-5.38 13.32-3.2zM1170.55 356.03c-3.4-4.21-5.57-8.97-6.39-14.33 2.98.37 4.14 2.75 4.71 5.06.74 3.03 2.2 6 1.68 9.27zM965.61 118.5c-5.62.04-8.87-3.98-12.55-7.28 5.21.66 9.73 2.5 12.55 7.28zM1181.26 391.78c-3.17-3.59-3.52-8.09-4.05-12.53 2.89.22 4.28 1.89 4.29 4.68.01 2.62-.15 5.23-.23 7.85zM315.03 781.03c3.78 2.57 5.76 6.42 7.47 10.46-6.65-.51-6.76-5.7-7.47-10.46zM543.92 861.71c3.69-2.98 7.78-4.31 12.5-3.04-.9 2.38-2.7 3.37-5.16 3.29-2.45-.07-4.89-.17-7.34-.26zM939.03 841.32c-1.77 4.14-5.29 5.96-9.36 7.04 1.48-4.53 3.46-8.39 9.36-7.04zM1184.54 452.61c1.17-3.98 3.62-7.19 6.21-10.31 1.28 5.53-.06 7.77-6.21 10.31zM1148.44 774.96c.58-4.33 1.71-8.34 5.98-10.57.97 5.2-1.77 8.3-5.98 10.57z" />
    <path class="prefix__cls-6"
      d="M132.84 963.01c7.41-.5 7.73-.34 9.85 5.14-2.86.06-4.74-2.45-7.42-2.86-.81-.76-1.62-1.52-2.42-2.28z" />
    <path class="prefix__cls-1" d="M731.68 804.95c3.75-3.78 8.62-5.05 13.6-6.09-3.76 3.76-7.94 6.56-13.6 6.09z" />
    <path class="prefix__cls-2" d="M820.48 909.17c-3.09 4.21-7.55 5.84-12.46 6.63 2.96-4.45 7.36-6.21 12.46-6.63z" />
    <path class="prefix__cls-6"
      d="M1301.09 347.03c-.21 5.85-.42 11.7-6.22 15.28.86-2.78 1.71-5.57 2.57-8.35 1.22-2.31 2.43-4.62 3.65-6.93z" />
    <path class="prefix__cls-1"
      d="M1297.44 353.96c-.86 2.78-1.71 5.57-2.57 8.35-1.26 1.14-1.15 3.22-2.79 4.09 0-4.91-.88-10.22 5.37-12.44zM1160.18 330.45c-2.45-2.26-5.02-4.45-4.82-8.26q5.43.92 4.82 8.26zM1287.57 479.49c1.67-3.71 4.16-6.78 7.33-9.31q-.8 7.63-7.33 9.31zM950.65 110.47c-3.63-.88-7.09-2.04-9.33-5.35 4.54-.72 8.19.12 9.33 5.35zM1294.93 470.2c1.99-3.88 4.14-7.63 7.71-10.34.24 5.54-2.15 9.12-7.71 10.34zM114.05 952.02c3.86 1.55 7.26 3.77 10 6.93-5.05.17-8.73-1.64-10-6.93zM1118.76 818.55c1.24-4.31 4.05-7.5 7.4-10.3-.54 4.82-2.03 8.95-7.4 10.3zM991.43 808.21c-1.63 3.21-4.27 5.05-7.78 5.68q1.12-5.68 7.78-5.68z" />
    <path class="prefix__cls-6" d="M1306.43 331.43c2.68 5.22-.25 8.6-3.87 11.76.65-4.13 1.85-8.08 3.87-11.76z" />
    <path class="prefix__cls-1"
      d="M1176.62 373.93c-3.17-2.46-3.82-5.95-3.93-9.66q4.64 2.22 3.93 9.66zM1154.87 761.58c.33-3.66 1.53-6.7 5.48-7.81q.08 5.78-5.48 7.81zM977.75 761.6c2.37-2.88 5.39-4.85 8.85-6.18-1.12 5.44-1.44 5.66-8.85 6.18zM132.84 963.01c.81.76 1.62 1.52 2.42 2.28-4.43.52-8.06-.32-9.22-5.39 2.27 1.04 4.53 2.07 6.8 3.11zM884.63 723.92c2.37-2.98 5.44-4.86 9.09-5.84-.85 5.34-4.48 6.36-9.09 5.84zM1007.78 740.62c2.37-2.84 5.27-4.93 8.71-6.27-1.84 5.62-2.05 5.77-8.71 6.27zM1162.26 748.05c1.38-3.81 1.41-8.34 5.69-10.6-1.23 3.89-.73 8.7-5.69 10.6zM894.7 717.8c2.8-3.4 6.39-5.52 10.65-6.56-1.94 4.8-5.63 6.76-10.65 6.56zM1242.36 452.6c-2.3 1.55-2.53 4.86-5.19 6.11-.71-4.65.85-7.93 5.61-9.28l.3.32c-.24.95-.48 1.9-.73 2.85zM1214.63 137.81c1.12.72 2.23 1.44 3.35 2.16-4.43 1.49-8.17.65-10.97-3.29 2.69-.66 4.99 1.38 7.62 1.14zM645.02 1006.92c.51.1 1.03.19 1.54.29-.02.5-.04 1-.05 1.5-2.42.05-4.84.1-7.27.14-2 .03-3.2-.86-3.36-2.95l7.32.09c.4.73.98 1.08 1.82.92zM927.08 848.79c-1.23 3.82-4.43 4.91-7.86 5.68 1.43-3.54 3.27-6.5 7.86-5.68zM619.37 1002.85c4.37-.15 8.49.79 12.37 2.78-2.98.08-5.96.17-8.94.24-2.06.05-3.29-.87-3.43-3.02zM949.42 835.22c-1.09 3.92-4.15 5.13-7.73 5.64 1.38-3.52 4.04-5.29 7.73-5.64zM1178.53 460.16c1.54-2.84 2.83-5.88 5.94-7.45-.66 6.21-.95 6.57-5.94 7.45zM1009.2 634.09c1.77-2.84 4.07-5.04 7.32-6.11-.47 4.39-3.05 6.26-7.32 6.11zM87.28 929.04c2.81 1.62 4.9 3.99 6.79 6.57-4.12-.27-6.67-2.16-6.79-6.57zM836.6 752.36c2.35-1.75 4.46-3.93 7.57-4.36-2.88 5.65-3.66 6.1-7.57 4.36zM1023.79 915.69c1.09-3.02 2.76-5.37 6.34-5.55-.68 3.49-2.46 5.73-6.34 5.55z" />
    <path class="prefix__cls-6"
      d="M418.41 935.47c-3.41-.04-6.82-.07-10.22-.11 3.22-1.53 6.61-2.21 10.17-1.97l.09 2.04-.03.03z" />
    <path class="prefix__cls-1"
      d="M70.61 909.97c-3.41-1.98-4.36-5.26-4.68-8.87l.48-.37c2.38 2.39 3.74 5.42 5.24 8.36-.35.29-.69.58-1.03.88zM994.28 646.15c1.47-2.92 4.36-3.93 7.03-5.24q-.77 4.89-7.03 5.24zM60.57 889.53l1.91 1.73c-.04.36.1.64.42.82-.52 2.3 1.85 3.62 1.93 5.72l-.47.4c-4.05-1.67-4.56-4.89-3.79-8.67zM1029.58 617.35c1.43-2.77 3.32-5.03 6.44-5.95-.35 3.92-2.35 6.07-6.44 5.95zM403.37 877.08c2.3 1.72 5.3 2.64 6.5 5.63q-5.54-.16-6.5-5.63zM1094.68 848.52c.34-3.54 2.48-5.39 5.79-6.12-.17 3.7-2.29 5.57-5.79 6.12zM1040.43 902.32c.84-3.23 2.72-5.35 6.18-5.78-.54 3.55-2.42 5.67-6.18 5.78zM877.09 728.4c1.79-2.64 4.38-3.95 7.45-4.45-.76 4.38-4.02 4.55-7.45 4.45zM888.37 818.19c1.73-2.28 4.05-3.6 6.83-4.14-.46 4.37-3.36 4.73-6.83 4.14zM1088.56 218.64c-2.43-1.15-4.03-3.02-4.82-5.59q4.65.18 4.82 5.59zM746.1 798.68c1.61-2.42 3.89-3.57 6.76-3.63-.8 3.91-3.54 4.22-6.76 3.63zM1223.71 141.65c3.09.19 5.78 1.39 8.19 3.28-1.64.11-3.29.29-4.94.31-2.38.03-3.37-1.3-3.25-3.59zM1046.57 108.03c2.5.75 4.46 2.22 5.9 4.39-3.11.07-6.24.18-5.9-4.39zM1079.43 208.53c-2.39-.83-4.48-1.98-4.99-4.77 3.12.08 5.18 1.24 4.99 4.77zM988.47 754.18c1.2-1.99 2.91-3.24 5.24-3.58.52 4.5-2.96 3.17-5.24 3.58zM1291.03 368.78c-.15 2.45-.98 4.58-2.92 6.19.12-2.46-1.25-5.63 2.92-6.19zM1083.48 567.8c.97-2.21 2.32-4.02 4.84-4.61.27 3.52-1.39 5-4.84 4.61zM352.87 830.19c2.55.47 3.75 2.31 4.56 4.53-3.24.22-5.07-.98-4.56-4.53zM844.18 748.01c1.47-1.97 3.52-2.85 5.88-3.14-.23 4.29-3.5 2.88-5.88 3.14zM832.47 808.23c-1.59 1.79-3.57 2.82-5.94 3.11.12-4.6 3.47-3.02 5.94-3.11z" />
    <path class="prefix__cls-2" d="M778.32 929.7c-.36 3.13-2.49 2.96-4.75 2.56.54-2.79 2.51-2.92 4.75-2.56z" />
    <path class="prefix__cls-1"
      d="M970.4 122.54c-1.12-.72-2.49-1.17-2.84-2.7 2.45-.21 4.43.53 5.67 2.78l-2.83-.09zM560.06 858.54c1.17-2.26 3.02-2.72 5.31-1.98-.84 3.17-3.16 2.35-5.31 1.98z" />
    <path class="prefix__cls-6"
      d="M1326.75 423.83c-.86.68-1.73 1.36-2.59 2.04.2-2.77.73-5.33 3.95-6.15-.24 1.01-.48 2.02-.73 3.03-.43.24-.64.6-.63 1.09z" />
    <path class="prefix__cls-1"
      d="M677.97 968.58c-.1.49-.12.98-.05 1.48-2.02.45-4.05.9-6.07 1.34.56-4.16 3.73-2.64 6.11-2.82z" />
    <path class="prefix__cls-2" d="M763.45 935.89c-.78 3.46-3.6 2.53-5.89 2.76 1.32-2.3 3.34-3.09 5.89-2.76z" />
    <path class="prefix__cls-1"
      d="M1163.21 337.81c-2.18-1-2.85-2.77-2.58-5.03 3.4.37 2.95 2.72 2.58 5.03zM1103.62 547.12c.75-1.85 2.01-3.08 4.08-3.28.55 3.47-1.84 3.28-4.08 3.28zM895.23 814.04c1.04-1.7 2.58-2.62 4.55-2.84-.32 2.86-2.39 2.92-4.55 2.84zM1031.9 908.52c.63-2.04 2.11-2.95 4.16-3.09.01 2.91-2.02 3.07-4.16 3.09z" />
    <path class="prefix__cls-2" d="M806.8 916.08c-.24 3.14-2.34 3.13-4.66 2.75.96-1.93 2.47-2.9 4.66-2.75z" />
    <path class="prefix__cls-1" d="M1076.56 574.07c.81-1.86 2.09-3.09 4.21-3.22.44 3.48-1.94 3.27-4.21 3.22z" />
    <path class="prefix__cls-8" d="M418.44 935.44l-.09-2.04c.97-.7 2.05-.87 3.21-.68 1.53 3.86-1.51 2.47-3.13 2.72z" />
    <path class="prefix__cls-2"
      d="M640.08 983.11c.57-.87 1.14-1.73 1.72-2.6l3.16.3c-.56 3.02-2.65 2.8-4.87 2.3zM770.89 932.83c-.46 2.97-2.56 2.82-4.75 2.5 1.03-1.88 2.45-3.04 4.75-2.5z" />
    <path class="prefix__cls-1"
      d="M1030.26 724.14c.87-1.8 2.17-3.03 4.26-3.23.11 3.09-2.04 3.2-4.26 3.23zM1167.94 737.47c-.09-2.21.38-4.09 2.8-4.83.47 2.42-.52 4-2.8 4.83zM850.08 744.9c.95-1.86 2.52-2.78 4.56-2.97-.06 3.23-2.25 3.19-4.56 2.97zM1038.66 717.9c.71-1.49 1.79-2.52 3.5-2.73-.18 2.18-1.43 2.97-3.5 2.73z" />
    <path class="prefix__cls-2" d="M980.67 128.81c-1.86.09-2.85-.86-3.15-2.64 2.1-.38 2.76.96 3.15 2.64z" />
    <path class="prefix__cls-1"
      d="M1004.38 638.35c.37-1.71 1.45-2.61 3.17-2.78 0 2.14-1.06 3.05-3.17 2.78zM1056.65 593.35c.48-1.64 1.38-2.81 3.24-2.92.19 2.38-1.01 3.22-3.24 2.92zM1237.08 458.84c-.18 1.77-1.28 2.85-2.75 3.66-.37-2.18.21-3.66 2.75-3.66z" />
    <path class="prefix__cls-2"
      d="M646.5 1008.72c.02-.5.03-1 .05-1.5 2 .07 4.12-.5 5.82 1.12-1.92.75-3.91.39-5.87.38z" />
    <path class="prefix__cls-1"
      d="M1036.07 905.41c.18-1.85 1.13-2.86 3.05-2.79-.1 1.93-1.13 2.85-3.05 2.79zM1091.15 560.38c.4-1.71 1.46-2.78 3.17-3.19.3 2.4-.75 3.48-3.17 3.19zM74.87 914.7c-1.72-.36-2.76-1.33-2.87-3.15l.69-.72c1.27.85 2.3 1.89 2.62 3.46l-.44.41zM1097.17 554.38c.44-1.66 1.48-2.72 3.14-3.16.3 2.39-.76 3.43-3.14 3.16z" />
    <path class="prefix__cls-5" d="M170.96 749.52c-1.75.49-3.32.41-4.36-1.36 1.69-.29 3.22-.08 4.36 1.36z" />
    <path class="prefix__cls-1"
      d="M1218.19 139.94c1.89-.12 3.6.24 4.82 1.87-1.93.22-4.26 1.48-4.82-1.87zM382.45 859.01c1.46.5 2.45 1.46 2.92 2.94-1.96 0-2.91-1.01-2.92-2.94zM351.03 827.49c1.25.49 1.79 1.43 1.74 2.74-1.54-.3-1.78-1.44-1.74-2.74zM723.2 808.19c.55-1.06 1.45-1.29 2.54-1.07-.65.84-1.57 1-2.54 1.07zM726.34 806.74c.31-1.32 1.18-1.42 2.26-1.03-.76.35-1.51.69-2.26 1.03zM65.93 901.1c-1.01-.71-1.35-1.78-1.56-2.91l.47-.4c1 .72 1.43 1.75 1.57 2.94l-.48.37zM322.5 791.5c1.22.57 1.6 1.66 1.79 2.88-1.55-.37-1.8-1.54-1.79-2.88zM1001.77 640.13c.45-1.27 1.43-1.74 2.7-1.79-.35 1.42-1.43 1.75-2.7 1.79z" />
    <path class="prefix__cls-2" d="M970.4 122.54l2.83.09c.09.46.14.93.17 1.4-1.38.27-2.52.05-3.01-1.49z" />
    <path class="prefix__cls-1"
      d="M905.7 710.59c.49-1.28 1.61-1.68 2.8-1.98-.26 1.61-1.43 1.93-2.8 1.98zM94.44 936c1.05.38 1.8 1.02 2.01 2.17-1.38-.07-1.83-.99-2.01-2.17zM1044.04 713.71c.38-1.22 1.31-1.72 2.49-1.9-.28 1.35-1.27 1.78-2.49 1.9zM1034.5 720.95c.53-1.31 1.65-1.83 2.9-2.19-.15 1.81-1.32 2.27-2.9 2.19z" />
    <path class="prefix__cls-6" d="M66.34 792.93c-1.62-.78-1.65-2.14-1.34-3.63 1.11.96 1.45 2.21 1.34 3.63z" />
    <path class="prefix__cls-2" d="M826.17 906.88c-.5 1.43-1.61 1.71-2.94 1.57.54-1.35 1.63-1.66 2.94-1.57z" />
    <path class="prefix__cls-1"
      d="M379.67 857.19c1.28.05 2.26.55 2.76 1.79-1.3-.02-2.43-.29-2.76-1.79zM1107.77 543.88c-.08-1.34.46-2.31 1.73-2.82.04 1.32-.16 2.49-1.73 2.82zM645.3 836.68c.4-1.19 1.25-1.42 2.35-1.1-.79.37-1.57.73-2.35 1.1zM857.52 740.43c.67-1.17 1.75-1.6 3.03-1.64-.46 1.55-1.65 1.77-3.03 1.64zM1080.89 570.92c.09-.92.66-1.48 1.42-1.9 0 .99-.42 1.66-1.42 1.9zM401.97 875.78c.82 0 1.24.46 1.36 1.24-.45-.41-.9-.83-1.36-1.24z" />
    <path class="prefix__cls-6" d="M1302.47 343.81c.18 1.02-.14 1.82-1.06 2.34-.05-.97.24-1.77 1.06-2.34z" />
    <path class="prefix__cls-1"
      d="M671.72 971.5c-.17.63-.44 1.1-1.21.73.29-.44.69-.69 1.21-.73zM778.25 783.91c.14-.81.68-1.18 1.45-1.3-.23.72-.69 1.18-1.45 1.3z" />
    <path class="prefix__cls-2" d="M754.35 939.42c-.3.34-.67.58-1.1.73-.02-.82.25-1.21 1.1-.73z" />
    <path class="prefix__cls-1"
      d="M378.21 855.44c.78.38 1.34.94 1.47 1.83-.98-.22-1.44-.85-1.47-1.83zM1291.69 366.99s.03.09.04.1c-.37-.17-.75-.35-1.12-.53.51-.24.87-.09 1.09.43zM992.74 647.54c.19-.75.65-1.19 1.42-1.29-.47.43-.95.86-1.42 1.29z" />
    <path class="prefix__cls-6" d="M188.76 917.48c-.4-.04-.73-.22-1-.51l.66-.08.34.59z" />
    <path class="prefix__cls-1"
      d="M72 911.55c-.46-.53-.93-1.05-1.39-1.58.34-.3.69-.59 1.03-.88l1.05 1.74-.69.72zM1126.34 808.04c.1-.71.5-1.13 1.21-1.24-.4.42-.8.83-1.21 1.24z" />
    <path class="prefix__cls-6"
      d="M1307.6 327.47l-.04.05-.24.09.28-.14zM277.7 452.73c3.35-10.66 6.25-21.48 10.15-31.93 6.86-18.38 13.77-36.75 22.48-54.38 1.22-2.46 2.54-4.82 4.35-6.89 6.45-.24 12.91.93 19.03 2.19 10.58 2.19 20.62-.18 30.77-1.41 8.74-1.06 17.31-3.59 25.95-5.47 2.02.25 3.79 1.04 5.31 2.41 1.51 1.36 3.23 2.09 5.3 2.36 15.51 2.09 29.15-7.55 30.11-22.32 14-1.44 26.86-6.99 39.82-11.79 10.81-4.01 21.29-9.03 31.6-14.38 12.01-6.23 23.17-13.54 32.95-22.82 9.57-9.08 18.26-18.84 24.69-30.62 7.52-13.8 12.08-28.32 12.57-43.95.33-10.43.66-20.9-1.34-31.3-2.25-11.69-4.87-23.25-8.41-34.64-2.08-6.72-6.13-12.48-8.29-19.1 7.07-5.4 15.79-7.12 23.72-10.59 24.63-10.78 50.19-18.9 76.21-25.54 12.3-3.14 24.73-5.79 37.18-8.27 9.99-1.99 19.88-4.51 30.1-5.35 6.93-.57 13.82-1.68 20.74-2.47 22.13-2.53 44.35-1.6 66.55-1.58 6.24 0 12.49-.09 18.55 1.81-.91 4.36.79 8.47 1.72 12.49 3.41 14.77 4.03 29.86 2.32 44.57-2.29 19.62-5.61 39.16-12.05 58.17-6.34 18.72-14.69 36.32-24.24 53.45-3.74 6.7-8.59 12.78-12.88 19.19-9.96 14.88-22.01 28.02-33.66 41.56-15.08 17.52-32.78 31.86-51.05 45.63-10.06 7.59-20.49 14.73-31.09 21.55-16.71 10.76-34.45 19.66-52.57 27.79-14.27 6.41-28.88 12.03-43.71 16.99-14.13 4.73-28.34 9.05-43.28 10.91-7.05.88-13.91 3.69-21.07 4.54-10.32 1.21-20.51 3.28-30.89 4.28-30.65 2.95-61.34 1.16-91.98.94-8.97-.06-18.29-1.36-27.39-2.1-13.06-1.07-26.32-1.38-39.53.55-7.7 1.12-15.12 2.73-22.27 5.65-3.46 1.41-6.72 3.23-9.31 6.11-1.87 2.08-4.34 3.32-7.15 3.75zm434.53-314.66c-4.28 0-8.62-1.24-11.66.22-11.69 5.64-26.44 8.11-29.03 24.6-.04.24-.1.62-.25.68-5.05 1.92-4.28 6.9-5.17 10.67-2.74 11.66-.34 22.62 6.57 32.32 2.72 3.81 6.27 7.17 9.92 10.16 8.43 6.9 18.58 9.3 29.18 9.3 8.85 0 16.1-5.63 24.25-8.22 1.67-.53 3-2.58 4.18-4.16 2.08-2.79 3.93-5.75 5.85-8.66 7.14-10.84 7.4-22.97 6.44-35.28-.11-1.41-.94-2.86-1.74-4.1-4.04-6.29-7.97-12.8-14.01-17.37-7.4-5.59-14.15-13.16-24.53-10.16z" />
    <path class="prefix__cls-4"
      d="M383 633.97c-4.65.59-8.65-.98-11.91-4.56-.67-.73-1.35-1.58-2.22-1.99-9.58-4.61-11.78-13.69-13.06-22.81-.67-4.79.76-9.7 4.56-13.64 6.77-7.02 14.26-12.68 24.49-12.15 10.72.56 18.92 6.64 24.41 15.19 6.07 9.46 3.71 21.92-4.58 29.89-5.43 5.22-15.1 11.79-21.69 10.08zM299.98 754.1c-1.35-.5-1.72-1.62-1.86-2.9 1.55.37 1.92 1.49 1.86 2.9zM302.52 757.27c-.83-.14-1.19-.7-1.31-1.47.91.07 1.39.52 1.31 1.47z" />
    <path class="prefix__cls-6" d="M275.78 460.11c.07-.89.47-1.59 1.23-2.08.12 1.01-.29 1.7-1.23 2.08z" />
    <path class="prefix__cls-9" d="M875.45 82.73c.87-.07 1.41.35 1.72 1.13-.57-.38-1.14-.75-1.72-1.13z" />
    <path class="prefix__cls-8"
      d="M1242.36 452.6c.24-.95.48-1.9.73-2.85.88-.63 1.75-1.27 2.63-1.9 1.86 3.5 1.55 3.94-3.36 4.75zM428.94 933.09c-1.22.87-2.36 1.35-3.24.04 1.12-1.13 2.23-.4 3.24-.04z" />
    <path class="prefix__cls-4"
      d="M725.78 1008.93c.37-2.03 1.6-2.89 3.64-2.87 11.4.06 22.79.07 34.19.15.67 0 1.49.23 1.41 1.73-1.36 1.33-3.38.72-5.19.84-4.57.3-9.33-.98-13.47 2.51-1.02.86-3.88.9-4.95.08-4.88-3.73-10.35-2.34-15.66-2.46l.02.03z" />
    <path class="prefix__cls-6"
      d="M1366.61 342.09c-2.39 10.58-7.68 20.06-11.54 30.08-.4 1.05-1.42 1.25-2.36 1.5-.16-1.75-.06-3.37.81-5.05 3.62-7.01 6.53-14.31 8.2-22.07.53-2.46 1.49-4.93 4.89-4.46zM1162.27 71.61c7.06-.11 13.95.93 20.7 2.93-7.16.8-14.1.12-20.7-2.93zM1319.38 433.19c-.83 2.45-1.85 4.78-4.2 6.2-.35-3.25-.69-6.5 4.2-6.2zM1190.93 75.99c2.96.01 5.93-.08 8.57 1.6-2.92-.22-6.26 1.83-8.57-1.6zM1184.84 74.92c2.02-.18 4.06-.48 5.76 1.05-2.03.23-4.18 1.14-5.76-1.05zM1324.17 425.85c-.23 1.57-.98 2.76-2.49 3.39-.45-2.07.84-2.86 2.49-3.39zM1321.67 429.31c-.06 1.66-.7 2.98-2.22 3.78.19-1.58-.53-3.7 2.22-3.78z" />
    <path class="prefix__cls-8"
      d="M554.73 128.71c2.17 6.62 6.21 12.38 8.29 19.1 3.53 11.39 6.16 22.94 8.41 34.64 2 10.41 1.66 20.87 1.34 31.3-.49 15.63-5.05 30.15-12.57 43.95-6.42 11.78-15.12 21.54-24.69 30.62-9.78 9.27-20.94 16.59-32.95 22.82-10.31 5.35-20.79 10.37-31.6 14.38-12.96 4.81-25.82 10.35-39.82 11.79-.19-1.23-.47-2.45-.54-3.68-.65-10.86-7.11-18.77-17.42-21.28-13.69-3.34-26.03 4.38-29.7 17.87-2.68 9.86 1.1 17.43 6.93 24.64-8.64 1.88-17.21 4.4-25.95 5.47-10.15 1.24-20.19 3.6-30.77 1.41-6.12-1.26-12.58-2.43-19.03-2.19 1.8-5.45 5.15-10.37 6.94-15.59 3.38-9.84 10.53-17.35 14.41-26.81 2.78-6.78 7.88-12.44 12.8-18.04 3.56-4.05 6.1-8.97 9.1-13.49 8.01-12.07 17.55-22.84 26.74-33.96 6.84-8.28 14.52-15.76 21.78-23.56 6.83-7.34 14.61-14.03 22.29-20.7 9.37-8.14 18.74-16.28 28.79-23.48 16.37-11.73 33.34-22.58 50.71-32.82 4.9-2.89 9.9-5.61 14.89-8.29 8.69-4.67 17.6-8.91 26.5-13.17 1.5-.72 3.4-.62 5.11-.9z" />
    <path class="prefix__cls-6"
      d="M72.69 910.83l-1.05-1.74c-1.49-2.95-2.86-5.98-5.24-8.36-.14-1.18-.57-2.21-1.57-2.94-.09-2.1-2.45-3.42-1.93-5.72 2.05-.09 2.99 1.31 3.95 2.8 5.08 7.93 10.25 15.81 15.24 23.79.57.91.22 2.38.29 3.6-3.03-2.06-4.4-5.59-7.06-7.97-.32-1.57-1.35-2.61-2.62-3.46z" />
    <path class="prefix__cls-2"
      d="M863.68 887.63c2.11-2.22 4.19-4.51 7.62-4.53-2.32 5.8-3.03 6.22-7.62 4.53zM622.29 988.27c2.77-1.89 5.81-2.99 9.2-3.02-3.38 4.57-3.89 4.73-9.2 3.02zM886.18 875.49c.8-2.13 2.32-3.12 4.6-2.89-.19 3.1-2.37 3.05-4.6 2.89zM880.17 878.49c.26-.8.78-1.25 1.65-1.24-.55.41-1.1.82-1.65 1.24zM874.23 881.52c.24-.83.76-1.26 1.65-1.18-.55.4-1.1.79-1.65 1.18zM645.02 1006.92c-.84.16-1.43-.19-1.82-.92.61.31 1.22.61 1.82.92z" />
    <path class="prefix__cls-9"
      d="M712.23 138.07c10.38-2.99 17.13 4.58 24.53 10.16 6.05 4.57 9.97 11.08 14.01 17.37.8 1.24 1.63 2.69 1.74 4.1.96 12.31.7 24.44-6.44 35.28-1.92 2.91-3.77 5.87-5.85 8.66-1.18 1.58-2.51 3.62-4.18 4.16-8.15 2.59-15.39 8.22-24.25 8.22-10.6 0-20.75-2.4-29.18-9.3-3.65-2.99-7.2-6.35-9.92-10.16-6.92-9.69-9.32-20.65-6.57-32.32.89-3.77.11-8.75 5.17-10.67.15-.06.22-.44.25-.68 2.6-16.49 17.34-18.95 29.03-24.6 3.03-1.46 7.38-.22 11.66-.22z" />
    <path class="prefix__cls-7"
      d="M390.43 354.85c-5.83-7.22-9.61-14.79-6.93-24.64 3.67-13.48 16.01-21.2 29.7-17.87 10.3 2.51 16.76 10.43 17.42 21.28.07 1.23.35 2.46.54 3.68-.96 14.76-14.59 24.41-30.1 22.32-2.07-.28-3.8-1-5.3-2.36a9.405 9.405 0 00-5.31-2.41z" />
  </g>
</svg>